<svg width="137" height="60" viewBox="0 0 137 60" fill="none" xmlns="http://www.w3.org/2000/svg">
<g id="Afiliados 1" clip-path="url(#clip0_2272_448)">
<g id="Capa 1">
<g id="Group">
<g id="Group_2">
<path id="Vector" d="M9.45485 43.0467C7.93316 43.0467 6.41578 42.9993 4.90703 42.9044C3.39827 42.8096 1.82916 42.5898 0.199707 42.2449V15.3244C1.47999 15.083 2.88529 14.9019 4.40698 14.7855C5.92867 14.6648 7.34259 14.6045 8.65305 14.6045C10.4161 14.6045 12.037 14.7295 13.5199 14.9838C15.0028 15.2382 16.2787 15.6736 17.3435 16.2857C18.4125 16.9021 19.2445 17.7082 19.848 18.7083C20.4472 19.7084 20.749 20.9456 20.749 22.4155C20.749 24.6313 19.6799 26.3814 17.5461 27.6617C19.3092 28.3299 20.5119 29.2394 21.1499 30.3861C21.7922 31.5327 22.1112 32.8303 22.1112 34.2701C22.1112 37.1798 21.0507 39.3696 18.9255 40.8396C16.8003 42.3096 13.6449 43.0424 9.45054 43.0424L9.45485 43.0467ZM6.29077 25.821H9.33415C11.2567 25.821 12.6319 25.5753 13.4595 25.0796C14.2872 24.5838 14.701 23.7907 14.701 22.6957C14.701 21.6008 14.2742 20.7861 13.4207 20.3335C12.5672 19.8808 11.3128 19.6524 9.65314 19.6524C9.11861 19.6524 8.54528 19.661 7.92885 19.6739C7.31241 19.6868 6.76495 19.7213 6.28646 19.7731V25.821H6.29077ZM6.29077 30.5887V37.7574C6.7434 37.8135 7.23913 37.8523 7.77366 37.8781C8.30819 37.904 8.89445 37.9169 9.53675 37.9169C11.4076 37.9169 12.9164 37.6497 14.063 37.1151C15.2097 36.5806 15.7873 35.5934 15.7873 34.1494C15.7873 32.8691 15.3045 31.9509 14.3432 31.4034C13.3819 30.856 12.0068 30.5844 10.2178 30.5844H6.29077V30.5887Z" fill="white"/>
<path id="Vector_2" d="M23.314 32.3129C23.314 30.4421 23.6028 28.8083 24.1761 27.4073C24.7494 26.0063 25.5038 24.8381 26.4392 23.9027C27.3747 22.9673 28.448 22.2603 29.6637 21.7775C30.8793 21.2947 32.1294 21.0576 33.4097 21.0576C36.4013 21.0576 38.7636 21.9715 40.5009 23.8036C42.2381 25.6313 43.1045 28.3255 43.1045 31.8776C43.1045 32.2267 43.0916 32.6061 43.0657 33.0199C43.0399 33.4337 43.014 33.8001 42.9838 34.1234H29.4438C29.5775 35.352 30.1508 36.3262 31.1681 37.0461C32.1811 37.766 33.5433 38.1281 35.2547 38.1281C36.3496 38.1281 37.423 38.029 38.4791 37.8264C39.5353 37.6281 40.3931 37.378 41.0613 37.0849L41.863 41.9302C41.5441 42.0897 41.113 42.2492 40.5828 42.4087C40.0482 42.5682 39.4533 42.7104 38.7981 42.8311C38.1429 42.9518 37.4402 43.051 36.6945 43.1329C35.9444 43.2148 35.1987 43.2536 34.4529 43.2536C32.5562 43.2536 30.9095 42.9734 29.5042 42.413C28.1032 41.8526 26.9393 41.0853 26.0168 40.1111C25.0943 39.1368 24.4132 37.9815 23.9735 36.6452C23.5338 35.3089 23.314 33.8691 23.314 32.3172V32.3129ZM37.3368 30.0282C37.3109 29.5196 37.2247 29.0282 37.0781 28.5454C36.9316 28.0626 36.7031 27.6358 36.397 27.2651C36.091 26.89 35.703 26.584 35.2331 26.3426C34.7676 26.1012 34.1856 25.9805 33.4916 25.9805C32.7976 25.9805 32.2501 26.0926 31.7673 26.321C31.2845 26.5495 30.8879 26.8469 30.5646 27.222C30.2456 27.597 29.9956 28.0281 29.8232 28.5238C29.6507 29.0195 29.5214 29.5196 29.4438 30.0239H37.3368V30.0282Z" fill="white"/>
<path id="Vector_3" d="M45.1088 16.3675L51.0792 15.4062V21.6137H58.2479V26.5797H51.0792V33.9898C51.0792 35.2442 51.299 36.2486 51.7387 36.9944C52.1784 37.7445 53.0664 38.1152 54.4027 38.1152C55.045 38.1152 55.7046 38.0548 56.3857 37.9341C57.0668 37.8134 57.6875 37.6496 58.2479 37.4341L59.0885 42.0811C58.3686 42.3742 57.5668 42.6285 56.6831 42.8441C55.8037 43.0596 54.7217 43.1631 53.4371 43.1631C51.8077 43.1631 50.4584 42.9432 49.3894 42.5035C48.3203 42.0638 47.4668 41.4474 46.8245 40.6628C46.1822 39.874 45.7339 38.9213 45.4838 37.8005C45.2295 36.6797 45.1045 35.4382 45.1045 34.076V16.3675H45.1088Z" fill="white"/>
<path id="Vector_4" d="M70.2233 14.6045C74.3616 14.6045 77.5386 15.333 79.7586 16.7857C81.9743 18.2428 83.0822 20.6266 83.0822 23.9372C83.0822 27.2479 81.9614 29.6877 79.7155 31.1663C77.4739 32.6492 74.2667 33.3907 70.1026 33.3907H68.1412V42.6846H61.8906V15.3244C63.2528 15.0571 64.6969 14.8718 66.2186 14.764C67.7403 14.6562 69.0766 14.6045 70.2233 14.6045ZM70.6242 19.9326C70.1715 19.9326 69.7232 19.9455 69.2835 19.9714C68.8438 19.9972 68.4602 20.0274 68.1412 20.0533V28.0669H70.1026C72.2666 28.0669 73.896 27.7738 74.9909 27.1875C76.0859 26.6013 76.6333 25.5063 76.6333 23.9027C76.6333 23.1268 76.4911 22.4888 76.2109 21.9802C75.9307 21.4715 75.5298 21.0663 75.0082 20.7602C74.4866 20.4542 73.8529 20.2386 73.1072 20.1179C72.3571 19.9972 71.5294 19.9369 70.6242 19.9369V19.9326Z" fill="white"/>
<path id="Vector_5" d="M93.2984 43.0857C91.5612 43.0598 90.1516 42.8701 89.0739 42.5253C87.9919 42.1804 87.1384 41.689 86.509 41.0639C85.8796 40.4389 85.4529 39.6759 85.2287 38.7793C85.0003 37.8826 84.8882 36.8782 84.8882 35.7531V12.5614L90.8585 11.6001V34.5547C90.8585 35.0893 90.8973 35.5721 90.9792 35.9988C91.0611 36.4256 91.212 36.7877 91.4405 37.0808C91.669 37.374 91.9966 37.6154 92.4233 37.8007C92.8501 37.9861 93.4234 38.1068 94.1476 38.1628L93.307 43.09L93.2984 43.0857Z" fill="white"/>
<path id="Vector_6" d="M104.317 21.0535C106.08 21.0535 107.55 21.2518 108.722 21.6527C109.899 22.0536 110.839 22.627 111.546 23.377C112.253 24.1271 112.753 25.0323 113.046 26.1014C113.339 27.1705 113.486 28.3602 113.486 29.6664V42.0856C112.632 42.271 111.442 42.4951 109.921 42.7451C108.399 42.9995 106.554 43.1245 104.394 43.1245C103.032 43.1245 101.795 43.0038 100.687 42.7624C99.5792 42.521 98.6223 42.1287 97.8248 41.5813C97.023 41.0338 96.4109 40.3182 95.9841 39.4388C95.5573 38.5594 95.3418 37.4774 95.3418 36.1928C95.3418 34.9082 95.5875 33.9211 96.0832 33.0676C96.579 32.214 97.2385 31.5329 98.0662 31.0243C98.8938 30.5156 99.8422 30.1492 100.911 29.9207C101.98 29.6923 103.088 29.5802 104.235 29.5802C105.011 29.5802 105.696 29.6147 106.3 29.6793C106.899 29.7483 107.386 29.8345 107.761 29.938V29.3776C107.761 28.3645 107.455 27.5498 106.839 26.9334C106.222 26.3213 105.157 26.0109 103.636 26.0109C102.618 26.0109 101.618 26.0842 100.631 26.2307C99.6439 26.3773 98.7904 26.5842 98.0662 26.8515L97.3032 22.045C97.648 21.9372 98.0834 21.8252 98.605 21.7045C99.1266 21.5838 99.6913 21.476 100.308 21.3855C100.92 21.2906 101.571 21.213 102.252 21.1441C102.933 21.0794 103.618 21.0449 104.317 21.0449V21.0535ZM104.795 38.5206C105.381 38.5206 105.942 38.5077 106.476 38.4818C107.011 38.456 107.438 38.4172 107.757 38.3611V33.8349C107.515 33.7831 107.158 33.7271 106.675 33.6754C106.192 33.6236 105.752 33.5935 105.351 33.5935C104.791 33.5935 104.261 33.6279 103.769 33.6926C103.274 33.7616 102.842 33.8866 102.467 34.072C102.092 34.2573 101.799 34.5117 101.588 34.835C101.373 35.1539 101.269 35.5548 101.269 36.0376C101.269 36.9731 101.584 37.6197 102.209 37.9818C102.838 38.3439 103.696 38.5206 104.791 38.5206H104.795Z" fill="white"/>
<path id="Vector_7" d="M136.044 21.6138C134.837 25.6745 133.582 29.4809 132.268 33.0329C130.957 36.5849 129.522 40.0292 127.97 43.37C127.41 44.5727 126.845 45.5944 126.284 46.435C125.724 47.2756 125.108 47.9696 124.439 48.517C123.771 49.0645 123.017 49.4654 122.172 49.7197C121.331 49.9741 120.349 50.0991 119.223 50.0991C118.288 50.0991 117.426 50.0129 116.637 49.8404C115.848 49.668 115.202 49.474 114.693 49.2585L115.736 44.4908C116.352 44.7064 116.9 44.8529 117.378 44.9305C117.861 45.0124 118.366 45.0512 118.9 45.0512C119.969 45.0512 120.788 44.7624 121.366 44.1891C121.939 43.6157 122.426 42.8183 122.827 41.8052C121.465 39.1369 120.103 36.1366 118.741 32.8131C117.378 29.4895 116.094 25.7564 114.895 21.6181H121.224C121.491 22.6613 121.806 23.7864 122.168 25.002C122.53 26.2176 122.913 27.4462 123.314 28.6877C123.715 29.9292 124.125 31.1405 124.543 32.313C124.957 33.4898 125.353 34.5546 125.728 35.5159C126.078 34.5546 126.44 33.4855 126.815 32.313C127.19 31.1362 127.56 29.9292 127.923 28.6877C128.285 27.4462 128.634 26.2176 128.97 25.002C129.306 23.7864 129.608 22.657 129.875 21.6181H136.048L136.044 21.6138Z" fill="white"/>
</g>
<g id="Group_3">
<path id="Vector_8" d="M5.67434 58.3503H2.51888L2.0447 59.4797H0.199707L3.05341 53.311H5.1355L7.98058 59.4797H6.1399L5.67434 58.3503ZM5.14412 57.0959L4.09661 54.6086L3.0491 57.0959H5.14843H5.14412Z" fill="#61FFFF"/>
<path id="Vector_9" d="M12.9078 54.5568V55.8457H16.6538V57.0958H12.9078V59.4753H11.1533V53.3066H16.9081V54.5568H12.9078Z" fill="#61FFFF"/>
<path id="Vector_10" d="M22.0982 53.3066V59.4753H20.3438V53.3066H22.0982Z" fill="#61FFFF"/>
<path id="Vector_11" d="M31.5517 59.4753H25.7969V53.3066H27.5513V58.2252H31.5517V59.4753Z" fill="#61FFFF"/>
<path id="Vector_12" d="M36.8282 53.3066V59.4753H35.0737V53.3066H36.8282Z" fill="#61FFFF"/>
<path id="Vector_13" d="M45.4752 58.3503H42.3197L41.8456 59.4797H40.0049L42.8586 53.311H44.9407L47.7858 59.4797H45.9451L45.4795 58.3503H45.4752ZM44.945 57.0959L43.8975 54.6086L42.85 57.0959H44.9493H44.945Z" fill="#61FFFF"/>
<path id="Vector_14" d="M57.8125 56.3932C57.8125 58.984 55.8468 59.4797 53.9242 59.4797H50.9541V53.311H53.9242C55.8468 53.311 57.8125 53.7938 57.8125 56.3975V56.3932ZM56.0192 56.3932C56.0192 54.7982 55.0234 54.5611 53.7819 54.5611H52.7172V58.2296H53.7819C55.0234 58.2296 56.0192 57.9839 56.0192 56.3975V56.3932Z" fill="#61FFFF"/>
<path id="Vector_15" d="M68.6756 56.3931C68.6756 58.7467 66.6151 59.6002 64.8348 59.6002C63.0544 59.6002 60.981 58.7467 60.981 56.3931C60.981 54.0394 63.0544 53.1772 64.8348 53.1772C66.6151 53.1772 68.6756 54.0308 68.6756 56.3931ZM66.8953 56.3931C66.8953 55.1774 66.1366 54.4187 64.8348 54.4187C63.5329 54.4187 62.7742 55.1774 62.7742 56.3931C62.7742 57.6087 63.5243 58.3587 64.8348 58.3587C66.1452 58.3587 66.8953 57.6087 66.8953 56.3931Z" fill="#61FFFF"/>
<path id="Vector_16" d="M78.754 57.5095C78.754 58.9924 77.5039 59.6002 75.2279 59.6002C72.788 59.6002 71.7534 58.8157 71.7534 57.4664H73.6113C73.6113 58.1561 74.4735 58.3587 75.3486 58.3587C76.3012 58.3587 76.8271 58.1648 76.8271 57.7509C76.8271 57.238 76.0598 57.2681 74.3787 56.975C72.8268 56.712 71.9 56.4017 71.9 55.1602C71.9 53.9187 72.8958 53.1772 75.1158 53.1772C77.5557 53.1772 78.3488 54.0782 78.3488 55.186H76.5513C76.5513 54.7722 76.0555 54.4187 75.0985 54.4187C74.051 54.4187 73.6458 54.6386 73.6458 55.0266C73.6458 55.5481 74.5899 55.5826 75.6374 55.712C77.1979 55.9232 78.7497 55.9577 78.7497 57.5095H78.754Z" fill="#61FFFF"/>
</g>
</g>
</g>
</g>
<defs>
<clipPath id="clip0_2272_448">
<rect width="136" height="59.2" fill="white" transform="translate(0.200195 0.399902)"/>
</clipPath>
</defs>
</svg>
