<svg width="28" height="28" viewBox="0 0 28 28" fill="none" xmlns="http://www.w3.org/2000/svg">
<g id="Frame" clip-path="url(#clip0_2272_435)">
<path id="Vector" d="M14.3083 2.50394C16.8544 2.50394 20.3723 2.83882 21.5008 3.06453C21.5045 3.06505 21.5083 3.0661 21.5119 3.06663C23.0502 3.36512 24.628 4.87176 24.9639 6.36101C25.3236 8.09864 25.4929 9.83048 25.4966 11.8106C25.4929 13.7904 25.3236 15.5227 24.9639 17.2604C24.628 18.7491 23.0502 20.2562 21.5119 20.5547C21.5083 20.5553 21.5045 20.5563 21.5008 20.5568C20.8258 20.6918 19.4067 20.8521 17.8859 20.9656C17.2556 21.0125 16.684 21.3542 16.3444 21.8874C16.1624 22.1727 15.9683 22.4723 15.7669 22.7776C15.0977 23.7911 14.5044 24.6338 14.0008 25.2878C13.4971 24.6344 12.9039 23.7911 12.2347 22.7776C12.0327 22.4717 11.8387 22.1721 11.6567 21.8874C11.3171 21.3542 10.746 21.0125 10.1153 20.9656C8.59435 20.8521 7.17524 20.6918 6.50023 20.5568C6.49654 20.5563 6.49285 20.5553 6.48916 20.5547C4.95087 20.2562 3.37302 18.7496 3.0371 17.2609C2.67745 15.5232 2.50816 13.7909 2.50447 11.8112C2.50816 9.831 2.67745 8.09917 3.0371 6.36154C3.37302 4.87282 4.95087 3.36564 6.48969 3.06716C6.49338 3.06663 6.49707 3.06557 6.50076 3.06505C7.62982 2.83935 11.1473 2.50447 13.6933 2.50447C13.7904 2.50447 13.8853 2.50447 13.9786 2.50605C13.986 2.50605 13.9934 2.50605 14.0008 2.50605C14.0082 2.50605 14.0155 2.50605 14.023 2.50605C14.1163 2.505 14.2112 2.50394 14.3083 2.50394ZM13.6933 0.5C11.1162 0.5 7.45422 0.830123 6.10788 1.09907C3.80861 1.54522 1.58529 3.64567 1.07798 5.9386C0.788462 7.33082 0.504746 9.22507 0.5 11.8106C0.504219 14.3963 0.788462 16.29 1.07745 17.6822C1.58529 19.9752 3.8081 22.0756 6.10736 22.5218C6.86358 22.6731 8.35125 22.8435 9.96601 22.9637C10.149 23.2511 10.3473 23.557 10.5619 23.8813C11.4189 25.1791 12.0749 26.0835 12.5717 26.7137C12.9851 27.2379 13.493 27.5 14.0002 27.5C14.5076 27.5 15.0154 27.2379 15.4289 26.7137C15.9257 26.0835 16.5811 25.1791 17.4386 23.8813C17.6532 23.5564 17.851 23.2511 18.0345 22.9637C19.6499 22.8435 21.137 22.6731 21.8937 22.5218C24.1929 22.0756 26.4157 19.9752 26.9235 17.6822C27.2126 16.29 27.4969 14.3963 27.501 11.8106C27.4969 9.22507 27.2126 7.33135 26.9235 5.93913C26.4157 3.6462 24.1929 1.54574 21.8937 1.0996C20.5474 0.830123 16.8854 0.5 14.3083 0.5C14.2038 0.5 14.1015 0.500527 14.0008 0.501582C13.9001 0.500527 13.7973 0.5 13.6933 0.5Z" fill="#5FB3E1"/>
<path id="Vector_2" d="M12.5096 17.8321C12.5666 17.511 12.8577 17.2199 13.1788 17.1629C13.3734 17.1308 13.6387 17.1002 14.0009 17.0996C14.3627 17.0996 14.628 17.1302 14.8231 17.1629C15.1443 17.2199 15.4354 17.511 15.4923 17.8321C15.5245 18.0267 15.5551 18.292 15.5556 18.6542C15.5556 19.016 15.5251 19.2813 15.4923 19.4764C15.4354 19.7976 15.1443 20.0887 14.8231 20.1457C14.6286 20.1778 14.3633 20.2084 14.0009 20.2089C13.6392 20.2089 13.374 20.1783 13.1788 20.1457C12.8577 20.0887 12.5666 19.7976 12.5096 19.4764C12.4775 19.2819 12.4469 19.0166 12.4463 18.6542C12.4463 18.2926 12.4769 18.0273 12.5096 17.8321Z" fill="#5FB3E1"/>
<path id="Vector_3" d="M14.0009 15.1506C13.4478 15.1506 12.999 14.7018 12.999 14.1486V5.28957C12.999 4.73637 13.4478 4.2876 14.0009 4.2876C14.5541 4.2876 15.0029 4.73637 15.0029 5.28957V14.1486C15.0029 14.7018 14.5541 15.1506 14.0009 15.1506Z" fill="#5FB3E1"/>
</g>
<defs>
<clipPath id="clip0_2272_435">
<rect width="27" height="27" fill="white" transform="translate(0.5 0.5)"/>
</clipPath>
</defs>
</svg>
