<svg xmlns="http://www.w3.org/2000/svg" width="136" height="60" viewBox="0 0 136 60" fill="none">
  <g clip-path="url(#clip0_174_4913)">
    <path d="M9.25484 43.0467C7.73315 43.0467 6.21577 42.9993 4.70701 42.9044C3.19826 42.8096 1.62915 42.5898 -0.000305176 42.2449V15.3244C1.27998 15.083 2.68528 14.9019 4.20697 14.7855C5.72866 14.6648 7.14258 14.6045 8.45304 14.6045C10.2161 14.6045 11.837 14.7295 13.3199 14.9838C14.8027 15.2382 16.0787 15.6736 17.1435 16.2857C18.2125 16.9021 19.0445 17.7082 19.648 18.7083C20.2472 19.7084 20.549 20.9456 20.549 22.4155C20.549 24.6313 19.4799 26.3814 17.3461 27.6617C19.1092 28.3299 20.3119 29.2394 20.9499 30.3861C21.5921 31.5327 21.9111 32.8303 21.9111 34.2701C21.9111 37.1798 20.8507 39.3696 18.7255 40.8396C16.6003 42.3096 13.4449 43.0424 9.25053 43.0424L9.25484 43.0467ZM6.09076 25.821H9.13414C11.0567 25.821 12.4318 25.5753 13.2595 25.0796C14.0872 24.5838 14.501 23.7907 14.501 22.6957C14.501 21.6008 14.0742 20.7861 13.2207 20.3335C12.3672 19.8808 11.1128 19.6524 9.45313 19.6524C8.9186 19.6524 8.34527 19.661 7.72884 19.6739C7.1124 19.6868 6.56494 19.7213 6.08645 19.7731V25.821H6.09076ZM6.09076 30.5887V37.7574C6.54339 37.8135 7.03912 37.8523 7.57365 37.8781C8.10818 37.904 8.69444 37.9169 9.33674 37.9169C11.2076 37.9169 12.7164 37.6497 13.863 37.1151C15.0097 36.5806 15.5873 35.5934 15.5873 34.1494C15.5873 32.8691 15.1045 31.9509 14.1432 31.4034C13.1819 30.856 11.8068 30.5844 10.0178 30.5844H6.09076V30.5887Z" fill="white"/>
    <path d="M23.1138 32.3129C23.1138 30.4421 23.4026 28.8083 23.976 27.4073C24.5493 26.0063 25.3037 24.8381 26.2391 23.9027C27.1745 22.9673 28.2479 22.2603 29.4635 21.7775C30.6792 21.2947 31.9293 21.0576 33.2096 21.0576C36.2012 21.0576 38.5635 21.9715 40.3007 23.8036C42.0379 25.6313 42.9044 28.3255 42.9044 31.8776C42.9044 32.2267 42.8915 32.6061 42.8656 33.0199C42.8397 33.4337 42.8139 33.8001 42.7837 34.1234H29.2437C29.3773 35.352 29.9507 36.3262 30.968 37.0461C31.981 37.766 33.3432 38.1281 35.0546 38.1281C36.1495 38.1281 37.2229 38.029 38.279 37.8264C39.3351 37.6281 40.193 37.378 40.8611 37.0849L41.6629 41.9302C41.3439 42.0897 40.9128 42.2492 40.3826 42.4087C39.8481 42.5682 39.2532 42.7104 38.598 42.8311C37.9427 42.9518 37.2401 43.051 36.4943 43.1329C35.7443 43.2148 34.9985 43.2536 34.2528 43.2536C32.356 43.2536 30.7093 42.9734 29.304 42.413C27.9031 41.8526 26.7392 41.0853 25.8167 40.1111C24.8942 39.1368 24.2131 37.9815 23.7734 36.6452C23.3337 35.3089 23.1138 33.8691 23.1138 32.3172V32.3129ZM37.1366 30.0282C37.1108 29.5196 37.0246 29.0282 36.878 28.5454C36.7314 28.0626 36.503 27.6358 36.1969 27.2651C35.8908 26.89 35.5029 26.584 35.033 26.3426C34.5674 26.1012 33.9855 25.9805 33.2915 25.9805C32.5974 25.9805 32.05 26.0926 31.5672 26.321C31.0844 26.5495 30.6878 26.8469 30.3645 27.222C30.0455 27.597 29.7955 28.0281 29.623 28.5238C29.4506 29.0195 29.3213 29.5196 29.2437 30.0239H37.1366V30.0282Z" fill="white"/>
    <path d="M44.9089 16.3675L50.8793 15.4062V21.6137H58.048V26.5797H50.8793V33.9898C50.8793 35.2442 51.0991 36.2486 51.5388 36.9944C51.9785 37.7445 52.8665 38.1152 54.2029 38.1152C54.8451 38.1152 55.5047 38.0548 56.1858 37.9341C56.8669 37.8134 57.4876 37.6496 58.048 37.4341L58.8886 42.0811C58.1687 42.3742 57.3669 42.6285 56.4832 42.8441C55.6038 43.0596 54.5218 43.1631 53.2372 43.1631C51.6078 43.1631 50.2585 42.9432 49.1895 42.5035C48.1204 42.0638 47.2669 41.4474 46.6246 40.6628C45.9823 39.874 45.534 38.9213 45.2839 37.8005C45.0296 36.6797 44.9046 35.4382 44.9046 34.076V16.3675H44.9089Z" fill="white"/>
    <path d="M70.0233 14.6045C74.1616 14.6045 77.3386 15.333 79.5586 16.7857C81.7743 18.2428 82.8822 20.6266 82.8822 23.9372C82.8822 27.2479 81.7614 29.6877 79.5155 31.1663C77.2739 32.6492 74.0667 33.3907 69.9026 33.3907H67.9412V42.6846H61.6906V15.3244C63.0528 15.0571 64.4969 14.8718 66.0186 14.764C67.5403 14.6562 68.8766 14.6045 70.0233 14.6045ZM70.4242 19.9326C69.9715 19.9326 69.5232 19.9455 69.0835 19.9714C68.6438 19.9972 68.2602 20.0274 67.9412 20.0533V28.0669H69.9026C72.0665 28.0669 73.696 27.7738 74.7909 27.1875C75.8859 26.6013 76.4333 25.5063 76.4333 23.9027C76.4333 23.1268 76.2911 22.4888 76.0109 21.9802C75.7307 21.4715 75.3298 21.0663 74.8082 20.7602C74.2866 20.4542 73.6529 20.2386 72.9071 20.1179C72.1571 19.9972 71.3294 19.9369 70.4242 19.9369V19.9326Z" fill="white"/>
    <path d="M93.0986 43.0857C91.3614 43.0598 89.9518 42.8701 88.8741 42.5253C87.7921 42.1804 86.9386 41.689 86.3092 41.0639C85.6798 40.4389 85.2531 39.6759 85.0289 38.7793C84.8004 37.8826 84.6884 36.8782 84.6884 35.7531V12.5614L90.6587 11.6001V34.5547C90.6587 35.0893 90.6975 35.5721 90.7794 35.9988C90.8613 36.4256 91.0122 36.7877 91.2407 37.0808C91.4691 37.374 91.7968 37.6154 92.2235 37.8007C92.6503 37.9861 93.2236 38.1068 93.9478 38.1628L93.1072 43.09L93.0986 43.0857Z" fill="white"/>
    <path d="M104.117 21.0535C105.88 21.0535 107.35 21.2518 108.522 21.6527C109.699 22.0536 110.639 22.627 111.346 23.377C112.053 24.1271 112.553 25.0323 112.846 26.1014C113.139 27.1705 113.286 28.3602 113.286 29.6664V42.0856C112.432 42.271 111.242 42.4951 109.721 42.7451C108.199 42.9995 106.354 43.1245 104.194 43.1245C102.832 43.1245 101.595 43.0038 100.487 42.7624C99.3793 42.521 98.4223 42.1287 97.6248 41.5813C96.823 41.0338 96.2109 40.3182 95.7841 39.4388C95.3574 38.5594 95.1418 37.4774 95.1418 36.1928C95.1418 34.9082 95.3876 33.9211 95.8833 33.0676C96.379 32.214 97.0386 31.5329 97.8662 31.0243C98.6939 30.5156 99.6422 30.1492 100.711 29.9207C101.78 29.6923 102.888 29.5802 104.035 29.5802C104.811 29.5802 105.496 29.6147 106.1 29.6793C106.699 29.7483 107.186 29.8345 107.561 29.938V29.3776C107.561 28.3645 107.255 27.5498 106.639 26.9334C106.022 26.3213 104.957 26.0109 103.436 26.0109C102.418 26.0109 101.418 26.0842 100.431 26.2307C99.444 26.3773 98.5904 26.5842 97.8662 26.8515L97.1032 22.045C97.4481 21.9372 97.8835 21.8252 98.4051 21.7045C98.9267 21.5838 99.4914 21.476 100.108 21.3855C100.72 21.2906 101.371 21.213 102.052 21.1441C102.733 21.0794 103.418 21.0449 104.117 21.0449V21.0535ZM104.595 38.5206C105.182 38.5206 105.742 38.5077 106.276 38.4818C106.811 38.456 107.238 38.4172 107.557 38.3611V33.8349C107.315 33.7831 106.958 33.7271 106.475 33.6754C105.992 33.6236 105.552 33.5935 105.151 33.5935C104.591 33.5935 104.061 33.6279 103.569 33.6926C103.074 33.7616 102.643 33.8866 102.267 34.072C101.892 34.2573 101.599 34.5117 101.388 34.835C101.173 35.1539 101.069 35.5548 101.069 36.0376C101.069 36.9731 101.384 37.6197 102.009 37.9818C102.638 38.3439 103.496 38.5206 104.591 38.5206H104.595Z" fill="white"/>
    <path d="M135.844 21.6138C134.637 25.6745 133.382 29.4809 132.068 33.0329C130.757 36.5849 129.322 40.0292 127.77 43.37C127.209 44.5727 126.645 45.5944 126.084 46.435C125.524 47.2756 124.907 47.9696 124.239 48.517C123.571 49.0645 122.817 49.4654 121.972 49.7197C121.131 49.9741 120.148 50.0991 119.023 50.0991C118.088 50.0991 117.226 50.0129 116.437 49.8404C115.648 49.668 115.001 49.474 114.493 49.2585L115.536 44.4908C116.152 44.7064 116.7 44.8529 117.178 44.9305C117.661 45.0124 118.165 45.0512 118.7 45.0512C119.769 45.0512 120.588 44.7624 121.166 44.1891C121.739 43.6157 122.226 42.8183 122.627 41.8052C121.265 39.1369 119.903 36.1366 118.541 32.8131C117.178 29.4895 115.894 25.7564 114.695 21.6181H121.023C121.291 22.6613 121.605 23.7864 121.968 25.002C122.33 26.2176 122.713 27.4462 123.114 28.6877C123.515 29.9292 123.925 31.1405 124.343 32.313C124.757 33.4898 125.153 34.5546 125.528 35.5159C125.877 34.5546 126.239 33.4855 126.615 32.313C126.99 31.1362 127.36 29.9292 127.722 28.6877C128.084 27.4462 128.434 26.2176 128.77 25.002C129.106 23.7864 129.408 22.657 129.675 21.6181H135.848L135.844 21.6138Z" fill="white"/>
    <path d="M5.47432 58.3503H2.31887L1.84469 59.4797H-0.000305176L2.8534 53.311H4.93548L7.78057 59.4797H5.93988L5.47432 58.3503ZM4.9441 57.0959L3.8966 54.6086L2.84909 57.0959H4.94841H4.9441Z" fill="#61FFFF"/>
    <path d="M12.7077 54.5568V55.8457H16.4537V57.0958H12.7077V59.4753H10.9532V53.3066H16.7081V54.5568H12.7077Z" fill="#61FFFF"/>
    <path d="M21.8982 53.3066V59.4753H20.1437V53.3066H21.8982Z" fill="#61FFFF"/>
    <path d="M31.3516 59.4753H25.5968V53.3066H27.3513V58.2252H31.3516V59.4753Z" fill="#61FFFF"/>
    <path d="M36.6283 53.3066V59.4753H34.8738V53.3066H36.6283Z" fill="#61FFFF"/>
    <path d="M45.2753 58.3503H42.1199L41.6457 59.4797H39.805L42.6587 53.311H44.7408L47.5859 59.4797H45.7452L45.2796 58.3503H45.2753ZM44.7451 57.0959L43.6976 54.6086L42.6501 57.0959H44.7494H44.7451Z" fill="#61FFFF"/>
    <path d="M57.6126 56.3932C57.6126 58.984 55.647 59.4797 53.7244 59.4797H50.7543V53.311H53.7244C55.647 53.311 57.6126 53.7938 57.6126 56.3975V56.3932ZM55.8194 56.3932C55.8194 54.7982 54.8236 54.5611 53.5821 54.5611H52.5174V58.2296H53.5821C54.8236 58.2296 55.8194 57.9839 55.8194 56.3975V56.3932Z" fill="#61FFFF"/>
    <path d="M68.4757 56.3931C68.4757 58.7467 66.4151 59.6002 64.6348 59.6002C62.8545 59.6002 60.781 58.7467 60.781 56.3931C60.781 54.0394 62.8545 53.1772 64.6348 53.1772C66.4151 53.1772 68.4757 54.0308 68.4757 56.3931ZM66.6953 56.3931C66.6953 55.1774 65.9366 54.4187 64.6348 54.4187C63.333 54.4187 62.5743 55.1774 62.5743 56.3931C62.5743 57.6087 63.3243 58.3587 64.6348 58.3587C65.9453 58.3587 66.6953 57.6087 66.6953 56.3931Z" fill="#61FFFF"/>
    <path d="M78.5542 57.5095C78.5542 58.9924 77.304 59.6002 75.028 59.6002C72.5881 59.6002 71.5535 58.8157 71.5535 57.4664H73.4115C73.4115 58.1561 74.2736 58.3587 75.1487 58.3587C76.1013 58.3587 76.6273 58.1648 76.6273 57.7509C76.6273 57.238 75.8599 57.2681 74.1788 56.975C72.6269 56.712 71.7001 56.4017 71.7001 55.1602C71.7001 53.9187 72.6959 53.1772 74.9159 53.1772C77.3558 53.1772 78.1489 54.0782 78.1489 55.186H76.3514C76.3514 54.7722 75.8556 54.4187 74.8987 54.4187C73.8511 54.4187 73.4459 54.6386 73.4459 55.0266C73.4459 55.5481 74.39 55.5826 75.4375 55.712C76.998 55.9232 78.5498 55.9577 78.5498 57.5095H78.5542Z" fill="#61FFFF"/>
  </g>
  <defs>
    <clipPath id="clip0_174_4913">
      <rect width="136" height="59.2" fill="white" transform="translate(0 0.399902)"/>
    </clipPath>
  </defs>
</svg>
