<svg width="24" height="28" viewBox="0 0 24 28" fill="none" xmlns="http://www.w3.org/2000/svg">
<g id="Frame" clip-path="url(#clip0_2272_413)">
<path id="Vector" d="M8.91315 13.2531H17.3654C17.6311 13.2531 17.886 13.1474 18.0739 12.9596C18.2618 12.7717 18.3674 12.5168 18.3674 12.251C18.3674 11.9853 18.2618 11.7304 18.0739 11.5425C17.886 11.3546 17.6311 11.249 17.3654 11.249H8.91315C8.6474 11.249 8.39253 11.3546 8.20462 11.5425C8.0167 11.7304 7.91113 11.9853 7.91113 12.251C7.91113 12.5168 8.0167 12.7717 8.20462 12.9596C8.39253 13.1474 8.6474 13.2531 8.91315 13.2531Z" fill="#5FB3E1"/>
<path id="Vector_2" d="M8.91315 17.4649H14.4964C14.7622 17.4649 15.017 17.3594 15.205 17.1714C15.3929 16.9835 15.4984 16.7287 15.4984 16.4629C15.4984 16.1971 15.3929 15.9423 15.205 15.7543C15.017 15.5665 14.7622 15.4609 14.4964 15.4609H8.91315C8.6474 15.4609 8.39253 15.5665 8.20462 15.7543C8.0167 15.9423 7.91113 16.1971 7.91113 16.4629C7.91113 16.7287 8.0167 16.9835 8.20462 17.1714C8.39253 17.3594 8.6474 17.4649 8.91315 17.4649Z" fill="#5FB3E1"/>
<path id="Vector_3" d="M1.21023 22.557C1.61947 24.6632 3.48321 26.5961 5.5463 27.0528H5.55949C6.73237 27.2965 9.87024 27.4968 11.6913 27.5C13.1727 27.4947 17.5451 27.3281 18.5191 27.1256H18.5323C20.2974 26.7348 21.8922 25.082 22.2429 23.281C22.4349 22.3165 22.6422 17.7816 22.6259 16.1883C22.6406 14.6854 22.4391 9.55769 22.2429 8.56886C21.9054 6.83485 20.4156 5.2385 18.7296 4.77177L18.6273 4.41421C18.1648 2.72661 16.6353 1.23995 14.9885 0.875006L14.9757 0.872369C13.9827 0.666167 11.4423 0.503208 9.91296 0.500044C8.38357 0.49688 5.85218 0.665639 4.85544 0.872369L4.84225 0.875006C3.07872 1.26684 1.48447 2.91911 1.13324 4.72009C0.932834 5.7279 0.735069 10.6979 0.75089 12.2041C0.75089 12.279 0.75089 12.3622 0.75089 12.4424C0.749308 14.448 0.982407 21.4051 1.21023 22.557ZM3.10034 5.1056C3.29653 4.09357 4.28957 3.05517 5.27102 2.8342C6.03939 2.67599 8.42207 2.50775 9.91453 2.50512C11.407 2.50248 13.7949 2.67704 14.5617 2.8342C15.3565 3.01298 16.1555 3.71807 16.5399 4.52549C14.9288 4.42687 12.9538 4.35673 11.899 4.35462C10.4387 4.35725 7.57089 4.48857 6.06313 4.65469C5.79891 4.68372 5.55706 4.81651 5.39075 5.02386C5.22445 5.2312 5.14732 5.49612 5.17635 5.76033C5.20537 6.02455 5.33816 6.2664 5.5455 6.43271C5.75285 6.59901 6.01778 6.67614 6.28198 6.64711C7.7059 6.4889 10.521 6.36127 11.899 6.35864C13.2459 6.36127 16.1423 6.47888 17.7418 6.62233C17.9291 6.64817 18.0435 6.66874 18.1083 6.68192C19.0898 6.90289 20.0828 7.94129 20.279 8.95332V8.95912C20.424 9.68584 20.6408 14.563 20.6229 16.1773V16.1995C20.6413 17.8717 20.4193 22.1867 20.279 22.8908V22.896C20.0828 23.9075 19.0898 24.9459 18.1089 25.1669C17.3911 25.3124 13.3462 25.4928 11.6928 25.4981C9.84703 25.4949 6.91536 25.2871 5.97664 25.0946C4.78794 24.8309 3.62772 23.6897 3.25644 22.4731C3.78072 22.8365 4.36908 23.0974 4.99045 23.242C5.05813 23.2572 5.12729 23.2647 5.19665 23.2647C5.43073 23.2648 5.65662 23.1785 5.83094 23.0223C6.00526 22.8661 6.11571 22.651 6.14109 22.4183C6.16646 22.1856 6.10497 21.9517 5.96841 21.7616C5.83186 21.5715 5.62989 21.4385 5.40127 21.3882C4.452 21.1773 3.46528 20.3498 2.96903 19.3579C2.94423 18.86 2.92051 18.3269 2.89783 17.7816C3.54017 18.2921 4.269 18.6528 4.99045 18.8131C5.05818 18.8279 5.12731 18.8356 5.19665 18.8358C5.41241 18.8345 5.62136 18.7601 5.78951 18.6249C5.95765 18.4897 6.0751 18.3015 6.12272 18.0912C6.14971 17.9694 6.15245 17.8436 6.1308 17.7208C6.10914 17.598 6.06352 17.4807 5.99653 17.3756C5.92953 17.2704 5.84248 17.1795 5.74034 17.108C5.63822 17.0365 5.52299 16.9859 5.40127 16.9589C4.29378 16.7136 3.17259 15.6468 2.78761 14.4923C2.77547 14.0351 2.76652 13.6101 2.76071 13.2356C3.43575 13.8067 4.21151 14.207 4.99045 14.3795C5.05813 14.3947 5.12729 14.4022 5.19665 14.4022C5.43115 14.403 5.65764 14.3169 5.83248 14.1607C6.0073 14.0044 6.11811 13.7888 6.14352 13.5557C6.16893 13.3226 6.10717 13.0884 5.97011 12.8981C5.83307 12.7078 5.63043 12.575 5.40127 12.5252C4.29747 12.281 3.1863 11.2268 2.79499 10.0803C2.80818 9.69059 2.82399 9.2824 2.84193 8.87368C3.49745 9.40792 4.24527 9.78499 4.99045 9.95006C5.05818 9.96494 5.12731 9.97254 5.19665 9.97274C5.43159 9.97414 5.65869 9.88838 5.83405 9.73204C6.00942 9.57569 6.12057 9.35988 6.14603 9.12633C6.17148 8.89277 6.10942 8.65808 5.97186 8.46763C5.83429 8.27718 5.63099 8.14451 5.40127 8.09528C4.46888 7.88855 3.49957 7.08536 2.99487 6.11604C3.03125 5.63297 3.06659 5.27225 3.10034 5.10929V5.1056Z" fill="#5FB3E1"/>
</g>
<defs>
<clipPath id="clip0_2272_413">
<rect width="22.5" height="27" fill="white" transform="translate(0.75 0.5)"/>
</clipPath>
</defs>
</svg>
