<svg width="60" height="60" viewBox="0 0 60 60" fill="none" xmlns="http://www.w3.org/2000/svg">
<g id="Frame">
<g id="Group 2869">
<path id="Rectangle 1707" d="M47.0588 0H12.9412C5.79396 0 0 5.79396 0 12.9412V47.0588C0 54.206 5.79396 60 12.9412 60H47.0588C54.206 60 60 54.206 60 47.0588V12.9412C60 5.79396 54.206 0 47.0588 0Z" fill="url(#paint0_linear_107_1257)"/>
</g>
<g id="Group 2878">
<path id="Path 2048" d="M45.6177 44.5235V19.2153C45.6177 18.6433 45.3906 18.0948 44.9861 17.6904C44.5817 17.286 44.0332 17.0588 43.4613 17.0588H42.1295C42.1899 17.2709 42.2293 17.4884 42.2472 17.7082L44.4566 42.9153C44.532 43.7889 44.2577 44.6567 43.6939 45.3283C43.1302 46 42.323 46.4205 41.4495 46.4976L39.4119 46.6765H43.4625C44.0335 46.6758 44.581 46.4489 44.985 46.0453C45.389 45.6418 45.6165 45.0945 45.6177 44.5235Z" fill="#FF0000"/>
<path id="Path 2050" d="M42.659 42.4741L40.4531 17.2635C40.4285 16.9813 40.3486 16.7067 40.2178 16.4554C40.0871 16.2041 39.9081 15.981 39.6912 15.7989C39.4742 15.6167 39.2235 15.4791 38.9533 15.3939C38.6831 15.3088 38.3988 15.2776 38.1166 15.3023L36.6837 15.4282C36.7299 15.5691 36.7664 15.713 36.7931 15.8588L41.1872 40.7812C41.3387 41.6449 41.1414 42.5334 40.6385 43.2518C40.1356 43.9702 39.3683 44.4597 38.5049 44.6129L34.1178 45.3859L40.699 44.8106C40.9812 44.786 41.2558 44.7061 41.5071 44.5753C41.7584 44.4446 41.9815 44.2656 42.1636 44.0486C42.3458 43.8317 42.4833 43.5809 42.5685 43.3108C42.6537 43.0406 42.6837 42.7563 42.659 42.4741Z" fill="#FF0000"/>
<path id="Path 2049" d="M40.0152 40.235L35.621 15.3115C35.5215 14.7482 35.2023 14.2476 34.7338 13.9195C34.2652 13.5915 33.6855 13.4629 33.1222 13.5621L18.2528 16.1833C17.6895 16.2828 17.1889 16.602 16.8608 17.0705C16.5328 17.5391 16.4042 18.1188 16.5034 18.6821L20.8987 43.6056C20.9478 43.8846 21.0515 44.1511 21.2037 44.3901C21.3559 44.629 21.5536 44.8355 21.7857 44.998C22.0177 45.1605 22.2795 45.2756 22.5561 45.3369C22.8326 45.3981 23.1186 45.4043 23.3975 45.355L38.2657 42.7327C38.8288 42.6331 39.3292 42.3141 39.6573 41.8458C39.9853 41.3775 40.114 40.7982 40.0152 40.235ZM33.8222 32.2056C33.3924 32.8182 32.7854 33.2846 32.0828 33.5422C31.3802 33.7999 30.6156 33.8363 29.8916 33.6468C29.9595 33.8822 30.0436 34.1125 30.1434 34.3362C30.4646 34.9244 31.5716 35.3833 31.341 35.9103C31.1105 36.4374 30.6646 35.8668 29.4281 36.0856C28.1916 36.3044 27.9681 36.9927 27.5705 36.575C27.1728 36.1574 28.0575 35.3527 28.1587 34.6868C28.1757 34.4424 28.1757 34.1971 28.1587 33.9527C27.4511 34.4394 26.5952 34.6624 25.7401 34.5827C24.885 34.503 24.085 34.1258 23.4796 33.5167C22.8741 32.9076 22.5017 32.1053 22.4271 31.2498C22.3526 30.3942 22.5807 29.5396 23.0716 28.835C24.1846 27.2456 27.1763 23.3339 27.1763 23.3339C27.1763 23.3339 31.3293 25.9856 32.9187 27.0986C33.7152 27.6565 34.2575 28.508 34.4263 29.4657C34.5951 30.4235 34.3765 31.409 33.8187 32.2056" fill="#FF0000"/>
</g>
</g>
<defs>
<linearGradient id="paint0_linear_107_1257" x1="30" y1="0" x2="30" y2="60" gradientUnits="userSpaceOnUse">
<stop stop-color="#FFFF00"/>
<stop offset="1" stop-color="#FFBA00"/>
</linearGradient>
</defs>
</svg>
