<svg width="33" height="28" viewBox="0 0 33 28" fill="none" xmlns="http://www.w3.org/2000/svg">
<g id="Frame" clip-path="url(#clip0_2272_404)">
<path id="Vector" d="M24.6302 27.4808C23.9023 27.4808 23.2242 27.1075 22.8385 26.4916L21.2521 23.9783C19.5351 23.9534 17.115 23.8041 16.1943 23.6548C14.8692 23.4433 13.6063 22.6158 12.81 21.44C12.4367 20.905 12.5735 20.1647 13.1148 19.7976C13.656 19.4306 14.3901 19.5612 14.7572 20.1025C14.7634 20.1087 14.7696 20.1211 14.7759 20.1274C15.1989 20.7619 15.8894 21.2223 16.5676 21.3281H16.5738C17.4012 21.4649 20.2381 21.6391 21.8929 21.6267H21.9053C22.3097 21.6267 22.6892 21.832 22.907 22.1804L24.624 24.9115L26.5526 21.8506C26.7268 21.5707 27.0129 21.3778 27.3364 21.3156C28.3381 21.129 29.265 20.2269 29.4454 19.2564C29.6445 18.0619 29.7378 16.8488 29.7316 15.6357C29.7378 14.4225 29.6445 13.2156 29.4454 12.0211C29.265 11.0382 28.3007 10.1112 27.2867 9.94948H27.2805C26.8139 9.87483 25.6194 9.77529 24.3752 9.71308C23.7219 9.68197 23.218 9.12828 23.2491 8.47506C23.2802 7.82183 23.8339 7.31792 24.4871 7.34902C25.5759 7.40501 26.9756 7.49833 27.66 7.61031C28.6242 7.75962 29.5699 8.24488 30.3226 8.96653C31.0878 9.70064 31.598 10.6338 31.7784 11.5981V11.6105C32.0023 12.9419 32.1081 14.2857 32.1019 15.6357C32.1081 16.9857 32.0023 18.3294 31.7784 19.6608V19.6732C31.4611 21.4338 30.0427 22.9705 28.307 23.5117L26.4219 26.5041C26.0362 27.1138 25.3581 27.487 24.6302 27.4808Z" fill="#5FB3E1"/>
<path id="Vector_2" d="M8.15668 21.9569C7.41014 21.9569 6.70714 21.5774 6.31522 20.9366L4.28089 17.7078C2.43941 17.1479 0.933881 15.5241 0.597939 13.6578V13.6453C0.361534 12.2269 0.24333 10.796 0.255773 9.35894C0.249552 7.92184 0.361534 6.48475 0.597939 5.06631V5.05387C0.784574 4.03982 1.32582 3.05687 2.12835 2.28544C2.91844 1.52023 3.91384 1.01631 4.92789 0.854563C6.03526 0.674148 9.28272 0.487512 11.0433 0.506176C12.8101 0.493734 16.0576 0.674148 17.1588 0.860784C18.1728 1.02254 19.1682 1.52645 19.9583 2.29166C20.7608 3.06309 21.3021 4.04604 21.4887 5.06009V5.07253C21.7251 6.49097 21.8371 7.92184 21.8309 9.35894C21.8371 10.796 21.7251 12.2331 21.4887 13.6516V13.664C21.3021 14.6781 20.7608 15.661 19.9583 16.4324C19.162 17.1914 18.1728 17.7016 17.1588 17.8633C16.1945 18.0188 13.538 18.1868 11.7214 18.2117L10.0044 20.9366C9.6 21.5774 8.90322 21.9631 8.15668 21.9569ZM2.92466 13.2472C3.12374 14.3172 4.1378 15.3126 5.24517 15.5179C5.56867 15.5801 5.85485 15.773 6.02904 16.0529L8.15668 19.4311L10.0666 16.4013C10.2843 16.0592 10.6576 15.8476 11.0682 15.8476H11.0806C12.8537 15.8663 15.8959 15.6735 16.7793 15.5304H16.7855C17.8991 15.3562 18.9629 14.3359 19.162 13.2472C19.3735 11.9656 19.4793 10.6654 19.4668 9.36516C19.473 8.06493 19.3735 6.7647 19.162 5.48313C18.9629 4.40065 17.8991 3.38037 16.7855 3.19995H16.7793C15.8959 3.05687 12.7853 2.86401 11.0558 2.87645H11.0309C9.3076 2.85779 6.19701 3.05065 5.30738 3.19995H5.29494C4.18135 3.37415 3.11752 4.39442 2.91844 5.48313C2.70692 6.7647 2.60116 8.06493 2.6136 9.36516C2.60738 10.6716 2.71314 11.9656 2.92466 13.2472Z" fill="#5FB3E1"/>
<path id="Vector_3" d="M16.7233 8.14579H5.35097C4.69775 8.14579 4.16895 7.61699 4.16895 6.96377C4.16895 6.31054 4.69775 5.78174 5.35097 5.78174H16.7233C17.3765 5.78174 17.9053 6.31054 17.9053 6.96377C17.9053 7.61699 17.3765 8.14579 16.7233 8.14579Z" fill="#5FB3E1"/>
<path id="Vector_4" d="M11.2051 12.656H5.35097C4.69775 12.656 4.16895 12.1272 4.16895 11.474C4.16895 10.8208 4.69775 10.292 5.35097 10.292H11.2051C11.8583 10.292 12.3871 10.8208 12.3871 11.474C12.3871 12.1272 11.8583 12.656 11.2051 12.656Z" fill="#5FB3E1"/>
</g>
<defs>
<clipPath id="clip0_2272_404">
<rect width="31.8525" height="27" fill="white" transform="translate(0.25 0.5)"/>
</clipPath>
</defs>
</svg>
