<svg width="60" height="60" viewBox="0 0 60 60" fill="none" xmlns="http://www.w3.org/2000/svg">
<g id="Group 2857">
<path id="Rectangle 1707" d="M47.0588 0H12.9412C5.79396 0 0 5.79396 0 12.9412V47.0588C0 54.206 5.79396 60 12.9412 60H47.0588C54.206 60 60 54.206 60 47.0588V12.9412C60 5.79396 54.206 0 47.0588 0Z" fill="url(#paint0_linear_2272_316)"/>
<g id="Group 2847">
<g id="Clip path group">
<mask id="mask0_2272_316" style="mask-type:luminance" maskUnits="userSpaceOnUse" x="16" y="14" width="28" height="32">
<g id="clip-path">
<path id="Rectangle 1704" d="M43.1562 14.3296H16.8433V45.6696H43.1562V14.3296Z" fill="white"/>
</g>
</mask>
<g mask="url(#mask0_2272_316)">
<g id="Group 2846">
<path id="Path 2009" d="M36.3515 42.5237H35.2845V37.5166C35.2845 37.2864 35.193 37.0656 35.0302 36.9027C34.8673 36.7399 34.6465 36.6484 34.4162 36.6484H25.5856C25.3554 36.6484 25.1345 36.7399 24.9717 36.9027C24.8089 37.0656 24.7174 37.2864 24.7174 37.5166V42.5237H23.6503C23.5402 42.5237 23.4311 42.5454 23.3293 42.5876C23.2276 42.6297 23.1351 42.6915 23.0572 42.7694C22.9793 42.8473 22.9175 42.9398 22.8754 43.0415C22.8332 43.1433 22.8115 43.2524 22.8115 43.3626V44.8308C22.8115 45.0532 22.8999 45.2666 23.0572 45.4239C23.2145 45.5812 23.4279 45.6696 23.6503 45.6696H36.3562C36.5787 45.6696 36.7921 45.5812 36.9494 45.4239C37.1067 45.2666 37.195 45.0532 37.195 44.8308V43.359C37.195 43.1365 37.1067 42.9232 36.9494 42.7659C36.7921 42.6086 36.5787 42.5202 36.3562 42.5202M27.3268 38.2061H32.6809C32.7987 38.2061 32.9117 38.2528 32.995 38.3361C33.0783 38.4194 33.125 38.5324 33.125 38.6502C33.125 38.768 33.0783 38.8809 32.995 38.9642C32.9117 39.0475 32.7987 39.0943 32.6809 39.0943H27.3268C27.209 39.0943 27.0961 39.0475 27.0128 38.9642C26.9295 38.8809 26.8827 38.768 26.8827 38.6502C26.8827 38.5324 26.9295 38.4194 27.0128 38.3361C27.0961 38.2528 27.209 38.2061 27.3268 38.2061ZM27.3268 40.3672H32.6809C32.7987 40.3672 32.9117 40.414 32.995 40.4973C33.0783 40.5806 33.125 40.6936 33.125 40.8114C33.125 40.9291 33.0783 41.0421 32.995 41.1254C32.9117 41.2087 32.7987 41.2555 32.6809 41.2555H27.3268C27.209 41.2555 27.0961 41.2087 27.0128 41.1254C26.9295 41.0421 26.8827 40.9291 26.8827 40.8114C26.8827 40.6936 26.9295 40.5806 27.0128 40.4973C27.0961 40.414 27.209 40.3672 27.3268 40.3672Z" fill="#001849"/>
<path id="Path 2010" d="M42.268 16.2496H38.5033C38.5115 16.0378 38.515 15.8402 38.515 15.6614V14.7578C38.515 14.7015 38.5039 14.6457 38.4823 14.5937C38.4607 14.5416 38.4291 14.4944 38.3892 14.4546C38.3493 14.4148 38.3019 14.3833 38.2499 14.3619C38.1978 14.3404 38.142 14.3294 38.0856 14.3296H21.9127C21.7991 14.3296 21.6902 14.3747 21.6099 14.455C21.5296 14.5353 21.4844 14.6443 21.4844 14.7578V15.6614C21.4844 15.8402 21.4844 16.0378 21.4974 16.2496H17.7315C17.4959 16.2496 17.27 16.3432 17.1034 16.5097C16.9368 16.6763 16.8433 16.9023 16.8433 17.1378V19.0084C16.8823 21.6438 17.7752 24.1955 19.388 26.2802C20.1646 27.3039 21.1214 28.1774 22.2115 28.8578C23.2189 29.4897 24.3518 29.8948 25.5315 30.0449C25.7691 30.3752 26.0281 30.6896 26.3068 30.9861C26.678 31.3818 26.9621 31.8509 27.1408 32.3632C27.3195 32.8754 27.3889 33.4195 27.3444 33.9602C27.3405 34.0135 27.3358 34.0676 27.3303 34.1225C27.2801 34.674 27.1853 35.2205 27.0468 35.7567H32.955C32.8165 35.2205 32.7217 34.674 32.6715 34.1225V34.0602C32.6241 33.5024 32.6965 32.9409 32.8837 32.4134C33.071 31.8858 33.3689 31.4044 33.7574 31.0014C34.0454 30.698 34.3123 30.3753 34.5562 30.0355C35.7073 29.877 36.8116 29.476 37.7962 28.859C38.8863 28.1786 39.8431 27.3051 40.6197 26.2814C42.2325 24.1967 43.1254 21.645 43.1644 19.0096V17.1378C43.1644 16.9023 43.0709 16.6763 42.9043 16.5097C42.7377 16.3432 42.5118 16.2496 42.2762 16.2496M20.795 25.1955C19.4197 23.4228 18.6564 21.2518 18.6197 19.0084V18.0261H21.6421C22.0016 21.4397 22.8928 24.7761 24.2833 27.9143C22.8932 27.345 21.6865 26.4045 20.795 25.1955ZM24.0197 22.7378C23.4187 20.4732 23.0637 18.1504 22.9609 15.8096H23.9139C24.0197 19.4896 24.8656 25.6319 27.1103 29.6661C25.5999 27.6023 24.5463 25.2405 24.0197 22.7378ZM41.3844 19.0084C41.348 21.2522 40.5847 23.4236 39.2091 25.1967C38.3357 26.379 37.1618 27.3059 35.8091 27.8814C37.1756 24.7512 38.0407 21.4253 38.3727 18.0261H41.3856L41.3844 19.0084Z" fill="#001849"/>
</g>
</g>
</g>
</g>
</g>
<defs>
<linearGradient id="paint0_linear_2272_316" x1="30" y1="0" x2="30" y2="60" gradientUnits="userSpaceOnUse">
<stop stop-color="#74FFF4"/>
<stop offset="1" stop-color="#00C4FF"/>
</linearGradient>
</defs>
</svg>
