<svg width="60" height="60" viewBox="0 0 60 60" fill="none" xmlns="http://www.w3.org/2000/svg">
<g id="Group 2884">
<g id="Group 2870">
<path id="Rectangle 1712" d="M47.0588 0H12.9412C5.79396 0 0 5.79396 0 12.9412V47.0588C0 54.206 5.79396 60 12.9412 60H47.0588C54.206 60 60 54.206 60 47.0588V12.9412C60 5.79396 54.206 0 47.0588 0Z" fill="url(#paint0_linear_2272_365)"/>
<g id="Group 2862">
<g id="Group 2863">
<path id="Path 2051" d="M40.3366 18.4609H20.7331C18.9068 18.4609 17.1553 19.1864 15.864 20.4778C14.5726 21.7691 13.8472 23.5206 13.8472 25.3468V37.0539C13.8471 37.9853 14.1848 38.8851 14.7975 39.5866C15.4103 40.2881 16.2566 40.7436 17.1795 40.8687C18.1025 40.9938 19.0395 40.78 19.8169 40.2669C20.5943 39.7539 21.1593 38.9764 21.4072 38.0786L22.9601 35.0292C23.1063 34.501 23.422 34.0356 23.8586 33.7044C24.2952 33.3732 24.8286 33.1947 25.3766 33.1962H35.7072C36.2543 33.196 36.7864 33.3753 37.2219 33.7066C37.6573 34.038 37.972 34.503 38.1178 35.0303L39.6707 38.0798C39.9186 38.9776 40.4836 39.7551 41.261 40.2681C42.0383 40.7812 42.9754 40.9949 43.8983 40.8698C44.8213 40.7447 45.6676 40.2892 46.2804 39.5878C46.8931 38.8863 47.2308 37.9865 47.2307 37.0551V25.3503C47.2309 24.4457 47.0528 23.5498 46.7067 22.714C46.3606 21.8781 45.8532 21.1186 45.2136 20.4789C44.574 19.8391 43.8145 19.3316 42.9787 18.9854C42.143 18.6391 41.2471 18.4609 40.3425 18.4609M41.166 21.7962C41.3202 21.642 41.5166 21.537 41.7304 21.4945C41.9443 21.4519 42.1659 21.4738 42.3673 21.5572C42.5688 21.6406 42.741 21.7819 42.8621 21.9632C42.9832 22.1445 43.0479 22.3576 43.0479 22.5756C43.0479 22.7937 42.9832 23.0068 42.8621 23.1881C42.741 23.3694 42.5688 23.5107 42.3673 23.5941C42.1659 23.6775 41.9443 23.6994 41.7304 23.6568C41.5166 23.6143 41.3202 23.5092 41.166 23.3551C40.9593 23.1483 40.8432 22.868 40.8432 22.5756C40.8432 22.2833 40.9593 22.003 41.166 21.7962ZM19.5931 25.9468C19.103 25.9468 18.6239 25.8015 18.2164 25.5292C17.8089 25.2569 17.4914 24.8699 17.3039 24.4171C17.1164 23.9643 17.0674 23.466 17.1631 22.9854C17.2588 22.5047 17.4949 22.0633 17.8415 21.7168C18.1881 21.3703 18.6297 21.1345 19.1104 21.039C19.5911 20.9435 20.0893 20.9928 20.542 21.1805C20.9947 21.3682 21.3816 21.6859 21.6537 22.0935C21.9258 22.5011 22.0709 22.9803 22.0707 23.4703C22.0701 24.1273 21.8088 24.7571 21.3443 25.2216C20.8798 25.6861 20.25 25.9474 19.5931 25.948M27.5131 28.6539C27.5131 28.7107 27.5019 28.767 27.4801 28.8196C27.4583 28.8721 27.4264 28.9198 27.3862 28.96C27.346 29.0002 27.2983 29.0321 27.2458 29.0539C27.1933 29.0756 27.137 29.0868 27.0801 29.0868H26.0083V30.1586C26.0094 30.2161 25.9991 30.2733 25.9778 30.3268C25.9565 30.3803 25.9248 30.429 25.8845 30.4701C25.8442 30.5111 25.7961 30.5438 25.743 30.566C25.6899 30.5883 25.633 30.5998 25.5754 30.5998H24.8919C24.7771 30.5998 24.6669 30.5541 24.5857 30.473C24.5045 30.3918 24.4589 30.2816 24.4589 30.1668V29.0951H23.3883C23.2735 29.0951 23.1634 29.0494 23.0822 28.9683C23.001 28.8871 22.9554 28.7769 22.9554 28.6621V27.9786C22.9548 27.9213 22.9655 27.8645 22.987 27.8115C23.0085 27.7584 23.0403 27.7101 23.0805 27.6694C23.1208 27.6287 23.1687 27.5964 23.2216 27.5743C23.2744 27.5523 23.3311 27.5409 23.3883 27.5409H24.4589V26.4692C24.4589 26.3543 24.5045 26.2442 24.5857 26.163C24.6669 26.0818 24.7771 26.0362 24.8919 26.0362H25.5754C25.6902 26.0362 25.8003 26.0818 25.8815 26.163C25.9627 26.2442 26.0083 26.3543 26.0083 26.4692V27.5409H27.0801C27.1949 27.5409 27.3051 27.5866 27.3862 27.6677C27.4674 27.7489 27.5131 27.8591 27.5131 27.9739V28.6539ZM28.1801 23.4656H27.7401C27.5548 23.4656 27.377 23.392 27.246 23.261C27.1149 23.1299 27.0413 22.9522 27.0413 22.7668C27.0413 22.5815 27.1149 22.4037 27.246 22.2727C27.377 22.1416 27.5548 22.068 27.7401 22.068H28.1801C28.3654 22.068 28.5432 22.1416 28.6743 22.2727C28.8053 22.4037 28.8789 22.5815 28.8789 22.7668C28.8789 22.9522 28.8053 23.1299 28.6743 23.261C28.5432 23.392 28.3654 23.4656 28.1801 23.4656ZM33.3319 23.4656H32.8919C32.7065 23.4656 32.5288 23.392 32.3977 23.261C32.2667 23.1299 32.1931 22.9522 32.1931 22.7668C32.1931 22.5815 32.2667 22.4037 32.3977 22.2727C32.5288 22.1416 32.7065 22.068 32.8919 22.068H33.3319C33.5172 22.068 33.695 22.1416 33.826 22.2727C33.9571 22.4037 34.0307 22.5815 34.0307 22.7668C34.0307 22.9522 33.9571 23.1299 33.826 23.261C33.695 23.392 33.5172 23.4656 33.3319 23.4656ZM36.1425 30.2892C35.752 30.2892 35.3703 30.1734 35.0457 29.9565C34.7211 29.7396 34.468 29.4312 34.3186 29.0705C34.1692 28.7098 34.1301 28.3129 34.2063 27.9299C34.2824 27.547 34.4705 27.1952 34.7466 26.9191C35.0226 26.6431 35.3744 26.455 35.7573 26.3789C36.1403 26.3027 36.5372 26.3418 36.8979 26.4912C37.2586 26.6406 37.567 26.8937 37.7839 27.2183C38.0008 27.5429 38.1166 27.9246 38.1166 28.3151C38.1166 28.5743 38.0655 28.831 37.9663 29.0705C37.8671 29.31 37.7217 29.5277 37.5384 29.711C37.3551 29.8943 37.1374 30.0397 36.8979 30.1389C36.6584 30.2381 36.4017 30.2892 36.1425 30.2892ZM39.0378 25.4786C38.8836 25.3244 38.7786 25.128 38.736 24.9142C38.6935 24.7003 38.7153 24.4787 38.7987 24.2772C38.8821 24.0758 39.0234 23.9036 39.2047 23.7825C39.386 23.6613 39.5991 23.5967 39.8172 23.5967C40.0352 23.5967 40.2483 23.6613 40.4296 23.7825C40.6109 23.9036 40.7522 24.0758 40.8356 24.2772C40.9191 24.4787 40.9409 24.7003 40.8983 24.9142C40.8558 25.128 40.7508 25.3244 40.5966 25.4786C40.3899 25.6853 40.1095 25.8014 39.8172 25.8014C39.5248 25.8014 39.2445 25.6853 39.0378 25.4786ZM42.6848 27.568C42.5307 27.7222 42.3342 27.8272 42.1204 27.8697C41.9066 27.9123 41.6849 27.8905 41.4835 27.807C41.282 27.7236 41.1098 27.5823 40.9887 27.401C40.8676 27.2198 40.8029 27.0066 40.8029 26.7886C40.8029 26.5706 40.8676 26.3574 40.9887 26.1761C41.1098 25.9948 41.282 25.8536 41.4835 25.7701C41.6849 25.6867 41.9066 25.6649 42.1204 25.7074C42.3342 25.75 42.5307 25.855 42.6848 26.0092C42.8915 26.2159 43.0076 26.4963 43.0076 26.7886C43.0076 27.0809 42.8915 27.3613 42.6848 27.568ZM44.8107 25.4421C44.6565 25.5963 44.4601 25.7013 44.2463 25.7439C44.0324 25.7864 43.8108 25.7646 43.6093 25.6812C43.4079 25.5977 43.2357 25.4564 43.1146 25.2752C42.9935 25.0939 42.9288 24.8807 42.9288 24.6627C42.9288 24.4447 42.9935 24.2315 43.1146 24.0503C43.2357 23.869 43.4079 23.7277 43.6093 23.6442C43.8108 23.5608 44.0324 23.539 44.2463 23.5815C44.4601 23.6241 44.6565 23.7291 44.8107 23.8833C45.0174 24.09 45.1335 24.3704 45.1335 24.6627C45.1335 24.955 45.0174 25.2354 44.8107 25.4421Z" fill="#F6C3FF"/>
<path id="Path 2052" d="M19.5929 21.9985C19.3018 21.9985 19.0172 22.0849 18.7752 22.2466C18.5332 22.4083 18.3445 22.6381 18.2331 22.9071C18.1217 23.176 18.0926 23.4719 18.1494 23.7574C18.2062 24.0429 18.3463 24.3052 18.5522 24.511C18.758 24.7168 19.0202 24.857 19.3057 24.9138C19.5912 24.9706 19.8871 24.9414 20.1561 24.83C20.425 24.7186 20.6549 24.53 20.8166 24.288C20.9783 24.0459 21.0646 23.7614 21.0646 23.4703C21.0643 23.0801 20.9092 22.7059 20.6332 22.4299C20.3573 22.154 19.9831 21.9988 19.5929 21.9985Z" fill="#F6C3FF"/>
</g>
</g>
</g>
</g>
<defs>
<linearGradient id="paint0_linear_2272_365" x1="30" y1="0" x2="30" y2="60" gradientUnits="userSpaceOnUse">
<stop stop-color="#FF6FEE"/>
<stop offset="1" stop-color="#7C0060"/>
</linearGradient>
</defs>
</svg>
