<svg width="27" height="25" viewBox="0 0 27 25" fill="none" xmlns="http://www.w3.org/2000/svg">
<g id="Frame" clip-path="url(#clip0_2272_426)">
<path id="Vector" d="M2.47749 15.1949C2.80186 15.1948 3.12162 15.1181 3.41071 14.971C3.69981 14.8239 3.95005 14.6106 4.14106 14.3484C4.33206 14.0862 4.45843 13.7827 4.50985 13.4624C4.56127 13.1421 4.5363 12.8142 4.43697 12.5055L8.91067 7.72125C9.25751 7.88872 9.64446 7.95551 10.0274 7.91404C10.4104 7.87251 10.774 7.7244 11.077 7.48651L15.0822 9.9644C15.1142 10.4982 15.3526 10.9986 15.747 11.3597C16.1414 11.7208 16.6609 11.9142 17.1954 11.899C17.73 11.8839 18.2376 11.6612 18.6109 11.2784C18.9842 10.8955 19.1938 10.3823 19.1954 9.84756C19.1954 9.76062 19.1898 9.67377 19.1786 9.58756L24.0307 4.08177C24.4758 4.17866 24.9405 4.12501 25.3519 3.92926C25.7632 3.73351 26.098 3.40673 26.3036 3.00019C26.5091 2.59366 26.5739 2.13037 26.4878 1.68302C26.4017 1.23568 26.1694 0.829593 25.8276 0.528482C25.4857 0.227373 25.0536 0.0482791 24.5989 0.0193031C24.1442 -0.00967294 23.6929 0.113109 23.3155 0.368382C22.9382 0.623656 22.6563 0.996977 22.5141 1.42976C22.3718 1.86255 22.3773 2.33032 22.5296 2.75967L17.9507 7.95598C17.6296 7.81835 17.2788 7.76467 16.9314 7.80004C16.5838 7.83535 16.251 7.95861 15.9644 8.15809L11.8501 5.61282C11.7844 5.09372 11.5234 4.61914 11.1203 4.28557C10.7171 3.95199 10.2021 3.78446 9.67988 3.81704C9.15762 3.84961 8.66741 4.07985 8.30883 4.46094C7.9503 4.84203 7.7503 5.34535 7.74962 5.86861C7.74962 5.92125 7.75225 5.97704 7.75646 6.03019L2.97644 11.1391C2.69366 11.0687 2.39915 11.0591 2.11239 11.111C1.82562 11.1628 1.55314 11.275 1.31297 11.4401C1.0728 11.6051 0.87041 11.8193 0.7192 12.0684C0.567989 12.3176 0.471395 12.5959 0.435812 12.8852C0.400229 13.1744 0.426468 13.4679 0.512793 13.7462C0.599116 14.0246 0.743558 14.2815 0.936563 14.4998C1.12957 14.7181 1.36674 14.893 1.63237 15.0128C1.89802 15.1327 2.18607 15.1947 2.47749 15.1949Z" fill="#5FB3E1"/>
<path id="Vector_2" d="M0.120171 22.8764C0.272276 23.6543 0.938591 24.3422 1.70543 24.5122H1.71806C2.11291 24.593 2.51503 24.6331 2.91806 24.6316C3.31966 24.6332 3.72036 24.5935 4.11385 24.5132H4.12701C4.89385 24.3432 5.56015 23.6553 5.71173 22.8769C5.7791 22.5364 5.83594 21.8127 5.83173 21.3474C5.83594 20.8816 5.7791 20.1569 5.71173 19.8169C5.55963 19.039 4.89333 18.3516 4.12701 18.1822L4.11438 18.1795C3.71952 18.0988 3.3174 18.059 2.91438 18.0606C2.51259 18.0592 2.11172 18.0991 1.71806 18.1795L1.70543 18.1822C0.939117 18.3506 0.272803 19.038 0.120697 19.8159C0.0528026 20.158 -0.00351312 20.8806 0.000171096 21.3464C0.0038553 21.8122 0.0528026 22.5359 0.120171 22.8764ZM2.00017 21.3353C2.00155 20.959 2.02881 20.5832 2.08175 20.2106C2.09878 20.1796 2.12274 20.1529 2.15175 20.1327C2.40289 20.0831 2.65841 20.0591 2.91438 20.0611C3.17141 20.0589 3.428 20.0829 3.68017 20.1327C3.70947 20.1528 3.73363 20.1794 3.7507 20.2106C3.80348 20.5838 3.83055 20.9601 3.83175 21.3369V21.359C3.83055 21.7359 3.80348 22.1122 3.7507 22.4853C3.73364 22.5166 3.70949 22.5435 3.68017 22.5638C3.42904 22.6118 3.17373 22.6345 2.91806 22.6316C2.66106 22.6337 2.40451 22.6099 2.15228 22.5606C2.12296 22.5403 2.0988 22.5135 2.08175 22.4822C2.02877 22.1096 2.00152 21.7338 2.00017 21.3574V21.3353Z" fill="#5FB3E1"/>
<path id="Vector_3" d="M18.1923 15.5379C17.4016 15.3793 16.5872 15.3793 15.7965 15.5379H15.7834C15.016 15.7079 14.3492 16.3968 14.1981 17.1758C14.1202 17.5842 14.0776 19.7342 14.0786 20.0237C14.0797 20.3131 14.1202 22.4621 14.1981 22.871C14.3492 23.6505 15.016 24.3395 15.7834 24.5095H15.7965C16.5873 24.6674 17.4015 24.6674 18.1923 24.5095H18.2055C18.9728 24.3395 19.6392 23.6505 19.7907 22.871C19.8686 22.4626 19.9113 20.3121 19.9102 20.0237C19.9092 19.7352 19.8686 17.5847 19.7907 17.1758C19.6392 16.3968 18.9728 15.7079 18.2049 15.5379H18.1923ZM17.9102 20.0374C17.9149 20.4789 17.8607 22.1484 17.826 22.4895C17.8089 22.5182 17.786 22.5429 17.7586 22.5621C17.2542 22.6566 16.7367 22.6566 16.2323 22.5621C16.2049 22.5429 16.1819 22.5182 16.1649 22.4895C16.1302 22.1479 16.076 20.4789 16.0807 20.0374V20.0152C16.076 19.5737 16.1302 17.9047 16.1649 17.5631C16.1819 17.5344 16.2049 17.5097 16.2323 17.4905C16.7366 17.3954 17.2543 17.3954 17.7586 17.4905C17.786 17.5097 17.8089 17.5344 17.826 17.5631C17.8607 17.9042 17.9149 19.5737 17.9102 20.0152V20.0374Z" fill="#5FB3E1"/>
<path id="Vector_4" d="M12.8711 18.695C12.8711 18.386 12.8316 14.9671 12.7516 14.5371C12.6006 13.7576 11.9337 13.0692 11.1664 12.8992L11.1537 12.8966C10.3628 12.7383 9.54835 12.7383 8.75741 12.8966L8.74478 12.8997C7.97741 13.0692 7.31057 13.7581 7.15951 14.5376C7.07951 14.9655 7.04267 18.3855 7.04004 18.6955V18.7176C7.04267 19.026 7.07951 22.446 7.15951 22.8755C7.31057 23.655 7.97741 24.3439 8.74478 24.5139H8.75741C9.5482 24.6718 10.3624 24.6718 11.1532 24.5139H11.1664C11.9342 24.3439 12.6006 23.655 12.7516 22.8755C12.8316 22.4471 12.8685 19.0276 12.8711 18.7176V18.6955V18.695ZM10.8711 18.7171C10.8753 19.1381 10.8221 21.9803 10.7842 22.4934C10.7674 22.5205 10.7452 22.5437 10.719 22.5618C10.2146 22.6564 9.69704 22.6564 9.19267 22.5618C9.16646 22.5437 9.14425 22.5205 9.12741 22.4934C9.08951 21.9818 9.03635 19.1371 9.04109 18.7171V18.695C9.03635 18.2739 9.08951 15.4318 9.12741 14.9181C9.14425 14.8913 9.16646 14.8681 9.19267 14.8503C9.69699 14.755 10.2147 14.755 10.719 14.8503C10.7452 14.8681 10.7674 14.8913 10.7842 14.9181C10.8221 15.4297 10.8753 18.275 10.8711 18.695V18.7171Z" fill="#5FB3E1"/>
<path id="Vector_5" d="M25.2445 8.94725L25.2319 8.94462C24.441 8.78604 23.6265 8.78604 22.8356 8.94462L22.8229 8.94725C22.0556 9.11725 21.3887 9.8062 21.2371 10.5851C21.1566 11.0299 21.1193 16.3304 21.1177 16.7183V16.7404C21.1177 17.1288 21.1566 22.4288 21.2371 22.8736C21.3887 23.653 22.055 24.342 22.8224 24.512H22.8356C23.6264 24.6699 24.4406 24.6699 25.2314 24.512H25.2445C26.0119 24.342 26.6787 23.653 26.8298 22.8736C26.9098 22.4272 26.9472 17.1288 26.9493 16.7404V16.7183C26.9493 16.3304 26.9098 11.0309 26.8298 10.5851C26.6787 9.8062 26.0119 9.11725 25.2445 8.94725ZM24.9477 16.7404C24.9529 17.1904 24.8987 21.7857 24.8593 22.4973C24.8425 22.5227 24.8211 22.5446 24.7961 22.562C24.2917 22.6565 23.7742 22.6565 23.2698 22.562C23.245 22.5446 23.2237 22.5226 23.2071 22.4973C23.1677 21.7851 23.1135 17.1904 23.1182 16.7404V16.7183C23.1135 16.2683 23.1677 11.6736 23.2071 10.962C23.2237 10.9366 23.245 10.9146 23.2698 10.8972C23.7741 10.8021 24.2918 10.8021 24.7961 10.8972C24.8211 10.9146 24.8425 10.9366 24.8593 10.962C24.8987 11.6736 24.9529 16.2683 24.9477 16.7183V16.7404Z" fill="#5FB3E1"/>
</g>
<defs>
<clipPath id="clip0_2272_426">
<rect width="27" height="24.6842" fill="white"/>
</clipPath>
</defs>
</svg>
