<svg width="60" height="60" viewBox="0 0 60 60" fill="none" xmlns="http://www.w3.org/2000/svg">
<g id="Group 2855">
<path id="Rectangle 1707" d="M47.0588 0H12.9412C5.79396 0 0 5.79396 0 12.9412V47.0588C0 54.206 5.79396 60 12.9412 60H47.0588C54.206 60 60 54.206 60 47.0588V12.9412C60 5.79396 54.206 0 47.0588 0Z" fill="url(#paint0_linear_2272_291)"/>
<g id="Group 2854">
<g id="Clip path group">
<mask id="mask0_2272_291" style="mask-type:luminance" maskUnits="userSpaceOnUse" x="11" y="11" width="38" height="38">
<g id="clip-path">
<path id="Rectangle 1708" d="M34.8912 11.7567L11.7563 34.8916L25.1082 48.2434L48.2431 25.1086L34.8912 11.7567Z" fill="white"/>
</g>
</mask>
<g mask="url(#mask0_2272_291)">
<g id="Group 2853">
<path id="Path 2036" d="M24.9615 31.569C24.8746 31.4758 24.7698 31.4009 24.6533 31.3491C24.5369 31.2972 24.4112 31.2693 24.2837 31.267C24.1562 31.2648 24.0296 31.2883 23.9114 31.336C23.7932 31.3838 23.6858 31.4548 23.5957 31.545C23.5055 31.6351 23.4344 31.7425 23.3867 31.8607C23.3389 31.9789 23.3155 32.1055 23.3177 32.233C23.32 32.3605 23.3479 32.4862 23.3997 32.6027C23.4516 32.7191 23.5264 32.8239 23.6197 32.9109C23.708 33.0014 23.8135 33.0735 23.9299 33.123C24.0463 33.1726 24.1714 33.1985 24.2979 33.1993C24.4244 33.2002 24.5498 33.1759 24.6668 33.128C24.7839 33.08 24.8903 33.0094 24.9798 32.92C25.0689 32.831 25.1392 32.7251 25.1866 32.6084C25.234 32.4918 25.2575 32.3668 25.2557 32.2409C25.2539 32.115 25.2269 31.9907 25.1762 31.8755C25.1255 31.7602 25.0523 31.6563 24.9607 31.5698" fill="#004E11"/>
<path id="Path 2037" d="M30.741 31.3586C30.652 31.4472 30.5814 31.5524 30.5332 31.6684C30.485 31.7843 30.4602 31.9086 30.4602 32.0341C30.4602 32.1597 30.485 32.284 30.5332 32.3999C30.5814 32.5158 30.652 32.6211 30.741 32.7096C30.8293 32.8002 30.9347 32.8723 31.0512 32.9218C31.1676 32.9713 31.2926 32.9973 31.4191 32.9981C31.5456 32.999 31.671 32.9747 31.7881 32.9268C31.9052 32.8788 32.0116 32.8081 32.1011 32.7188C32.1902 32.6298 32.2605 32.5238 32.3079 32.4072C32.3553 32.2905 32.3787 32.1655 32.377 32.0397C32.3752 31.9138 32.3482 31.7895 32.2975 31.6742C32.2468 31.559 32.1735 31.4551 32.082 31.3686C31.9052 31.19 31.6648 31.0887 31.4135 31.0869C31.1622 31.085 30.9204 31.1827 30.741 31.3586Z" fill="#004E11"/>
<path id="Path 2038" d="M37.3669 15.9545C37.5057 15.5823 37.5351 15.1782 37.4519 14.7898C37.3686 14.4015 37.176 14.045 36.8969 13.7624L36.8878 13.7533C36.3582 13.2238 35.6401 12.9263 34.8912 12.9263C34.1424 12.9263 33.4242 13.2238 32.8947 13.7533L13.7529 32.8951C13.2234 33.4246 12.9259 34.1428 12.9259 34.8916C12.9259 35.6404 13.2234 36.3586 13.7529 36.8881L13.767 36.9023C14.0496 37.1814 14.4061 37.374 14.7944 37.4572C15.1828 37.5405 15.5869 37.511 15.9591 37.3723C16.2279 37.2733 16.5194 37.2534 16.7992 37.3149C17.079 37.3764 17.3353 37.5167 17.5379 37.7193C17.7404 37.9219 17.8808 38.1782 17.9423 38.458C18.0038 38.7378 17.9838 39.0293 17.8849 39.2981C17.7468 39.6684 17.7169 40.0704 17.7987 40.457C17.8804 40.8437 18.0704 41.1991 18.3466 41.4818L18.5171 41.6524C18.7997 41.9315 19.1562 42.1241 19.5445 42.2073C19.9329 42.2906 20.337 42.2611 20.7092 42.1224C20.978 42.0234 21.2695 42.0035 21.5493 42.065C21.8291 42.1265 22.0854 42.2668 22.288 42.4694C22.4905 42.6719 22.6309 42.9283 22.6924 43.2081C22.7538 43.4878 22.7339 43.7794 22.635 44.0482C22.4966 44.4195 22.4669 44.8225 22.5494 45.21C22.6319 45.5975 22.8232 45.9534 23.1008 46.2361L23.115 46.2502C23.6445 46.7797 24.3627 47.0772 25.1115 47.0772C25.8604 47.0772 26.5785 46.7797 27.1081 46.2502L46.2532 27.1051C46.7827 26.5756 47.0802 25.8574 47.0802 25.1086C47.0802 24.3597 46.7827 23.6416 46.2532 23.112L46.239 23.0979C45.9565 22.8188 45.6 22.6262 45.2116 22.5429C44.8233 22.4597 44.4192 22.4891 44.047 22.6279C43.7782 22.7268 43.4866 22.7467 43.2068 22.6852C42.9271 22.6238 42.6707 22.4834 42.4682 22.2809C42.2656 22.0783 42.1253 21.822 42.0638 21.5422C42.0023 21.2624 42.0222 20.9709 42.1212 20.702C42.2599 20.3299 42.2894 19.9258 42.2061 19.5374C42.1228 19.1491 41.9303 18.7926 41.6512 18.51L41.4848 18.3436C41.2022 18.0645 40.8457 17.872 40.4574 17.7887C40.069 17.7054 39.6649 17.7349 39.2927 17.8736C39.0239 17.9726 38.7324 17.9925 38.4526 17.931C38.1728 17.8695 37.9165 17.7292 37.7139 17.5266C37.5114 17.3241 37.371 17.0677 37.3095 16.788C37.2481 16.5082 37.268 16.2166 37.3669 15.9478M22.744 33.7869C22.4371 33.4816 22.2276 33.0923 22.1421 32.6681C22.0565 32.2438 22.0987 31.8037 22.2632 31.4034C22.4278 31.0031 22.7073 30.6606 23.0665 30.4192C23.4257 30.1778 23.8484 30.0483 24.2812 30.0472C24.714 30.046 25.1374 30.1732 25.4979 30.4127C25.8584 30.6522 26.1398 30.9931 26.3065 31.3926C26.4732 31.792 26.5177 32.2318 26.4344 32.6565C26.3512 33.0812 26.1438 33.4717 25.8386 33.7785C25.6366 33.9834 25.396 34.1462 25.1307 34.2576C24.8654 34.369 24.5807 34.4268 24.293 34.4275C24.0053 34.4283 23.7203 34.3721 23.4544 34.2621C23.1885 34.1522 22.9471 33.9906 22.744 33.7869ZM29.6911 36.6993L28.8509 37.5395C28.7136 37.6768 28.5772 37.6302 28.5223 37.4488L25.8378 28.0094C25.8156 27.9544 25.8116 27.8938 25.8262 27.8363C25.8409 27.7789 25.8735 27.7276 25.9193 27.6899L26.7512 26.858C26.8884 26.7208 27.0249 26.7674 27.0798 26.9487L29.7726 36.3799C29.7947 36.4348 29.7988 36.4955 29.7841 36.5529C29.7694 36.6104 29.7369 36.6616 29.6911 36.6993ZM32.9596 33.5772C32.6549 33.8803 32.2673 34.0863 31.8456 34.1692C31.424 34.2522 30.9872 34.2085 30.5904 34.0435C30.1936 33.8785 29.8546 33.5997 29.6161 33.2422C29.3776 32.8847 29.2503 32.4646 29.2503 32.0349C29.2503 31.6052 29.3776 31.1851 29.6161 30.8276C29.8546 30.4701 30.1936 30.1913 30.5904 30.0263C30.9872 29.8613 31.424 29.8176 31.8456 29.9005C32.2673 29.9835 32.6549 30.1895 32.9596 30.4926C33.3688 30.9018 33.5988 31.4569 33.5988 32.0357C33.5988 32.6145 33.3688 33.1696 32.9596 33.5789M40.2078 28.7498L39.3759 29.5816L30.4198 20.6255L31.2517 19.7936L40.2078 28.7498Z" fill="#004E11"/>
</g>
</g>
</g>
</g>
</g>
<defs>
<linearGradient id="paint0_linear_2272_291" x1="30" y1="0" x2="30" y2="60" gradientUnits="userSpaceOnUse">
<stop stop-color="#FFFF00"/>
<stop offset="1" stop-color="#07E737"/>
</linearGradient>
</defs>
</svg>
