<svg width="136" height="60" viewBox="0 0 136 60" fill="none" xmlns="http://www.w3.org/2000/svg">
<g id="Responsable (1) 2" clip-path="url(#clip0_2272_470)">
<g id="Capa 1">
<g id="Group">
<g id="Group_2">
<path id="Vector" d="M9.25465 43.0467C7.73296 43.0467 6.21559 42.9993 4.70683 42.9044C3.19807 42.8096 1.62897 42.5898 -0.000488281 42.2449V15.3244C1.2798 15.083 2.6851 14.9019 4.20679 14.7855C5.72847 14.6648 7.14239 14.6045 8.45286 14.6045C10.2159 14.6045 11.8368 14.7295 13.3197 14.9838C14.8026 15.2382 16.0785 15.6736 17.1433 16.2857C18.2124 16.9021 19.0443 17.7082 19.6478 18.7083C20.247 19.7084 20.5488 20.9456 20.5488 22.4155C20.5488 24.6313 19.4797 26.3814 17.3459 27.6617C19.109 28.3299 20.3117 29.2394 20.9497 30.3861C21.592 31.5327 21.911 32.8303 21.911 34.2701C21.911 37.1798 20.8505 39.3696 18.7253 40.8396C16.6001 42.3096 13.4447 43.0424 9.25034 43.0424L9.25465 43.0467ZM6.09058 25.821H9.13395C11.0565 25.821 12.4317 25.5753 13.2593 25.0796C14.087 24.5838 14.5008 23.7907 14.5008 22.6957C14.5008 21.6008 14.0741 20.7861 13.2205 20.3335C12.367 19.8808 11.1126 19.6524 9.45295 19.6524C8.91842 19.6524 8.34509 19.661 7.72865 19.6739C7.11222 19.6868 6.56476 19.7213 6.08627 19.7731V25.821H6.09058ZM6.09058 30.5887V37.7574C6.5432 37.8135 7.03894 37.8523 7.57347 37.8781C8.108 37.904 8.69426 37.9169 9.33656 37.9169C11.2074 37.9169 12.7162 37.6497 13.8628 37.1151C15.0095 36.5806 15.5871 35.5934 15.5871 34.1494C15.5871 32.8691 15.1043 31.9509 14.143 31.4034C13.1817 30.856 11.8066 30.5844 10.0177 30.5844H6.09058V30.5887Z" fill="white"/>
<path id="Vector_2" d="M23.1138 32.3129C23.1138 30.4421 23.4026 28.8083 23.9759 27.4073C24.5492 26.0063 25.3036 24.8381 26.2391 23.9027C27.1745 22.9673 28.2479 22.2603 29.4635 21.7775C30.6791 21.2947 31.9292 21.0576 33.2095 21.0576C36.2012 21.0576 38.5634 21.9715 40.3007 23.8036C42.0379 25.6313 42.9043 28.3255 42.9043 31.8776C42.9043 32.2267 42.8914 32.6061 42.8655 33.0199C42.8397 33.4337 42.8138 33.8001 42.7836 34.1234H29.2436C29.3773 35.352 29.9506 36.3262 30.9679 37.0461C31.9809 37.766 33.3431 38.1281 35.0545 38.1281C36.1494 38.1281 37.2228 38.029 38.2789 37.8264C39.3351 37.6281 40.1929 37.378 40.8611 37.0849L41.6629 41.9302C41.3439 42.0897 40.9128 42.2492 40.3826 42.4087C39.848 42.5682 39.2532 42.7104 38.5979 42.8311C37.9427 42.9518 37.24 43.051 36.4943 43.1329C35.7442 43.2148 34.9985 43.2536 34.2527 43.2536C32.356 43.2536 30.7093 42.9734 29.304 42.413C27.903 41.8526 26.7391 41.0853 25.8166 40.1111C24.8941 39.1368 24.213 37.9815 23.7733 36.6452C23.3336 35.3089 23.1138 33.8691 23.1138 32.3172V32.3129ZM37.1366 30.0282C37.1107 29.5196 37.0245 29.0282 36.8779 28.5454C36.7314 28.0626 36.5029 27.6358 36.1968 27.2651C35.8908 26.89 35.5028 26.584 35.0329 26.3426C34.5674 26.1012 33.9854 25.9805 33.2914 25.9805C32.5974 25.9805 32.0499 26.0926 31.5671 26.321C31.0843 26.5495 30.6877 26.8469 30.3644 27.222C30.0454 27.597 29.7954 28.0281 29.623 28.5238C29.4505 29.0195 29.3212 29.5196 29.2436 30.0239H37.1366V30.0282Z" fill="white"/>
<path id="Vector_3" d="M44.9086 16.3675L50.879 15.4062V21.6137H58.0477V26.5797H50.879V33.9898C50.879 35.2442 51.0988 36.2486 51.5385 36.9944C51.9782 37.7445 52.8662 38.1152 54.2025 38.1152C54.8448 38.1152 55.5044 38.0548 56.1855 37.9341C56.8666 37.8134 57.4873 37.6496 58.0477 37.4341L58.8883 42.0811C58.1684 42.3742 57.3666 42.6285 56.4829 42.8441C55.6035 43.0596 54.5215 43.1631 53.2369 43.1631C51.6075 43.1631 50.2582 42.9432 49.1892 42.5035C48.1201 42.0638 47.2666 41.4474 46.6243 40.6628C45.982 39.874 45.5337 38.9213 45.2836 37.8005C45.0293 36.6797 44.9043 35.4382 44.9043 34.076V16.3675H44.9086Z" fill="white"/>
<path id="Vector_4" d="M70.0231 14.6045C74.1614 14.6045 77.3384 15.333 79.5584 16.7857C81.7741 18.2428 82.882 20.6266 82.882 23.9372C82.882 27.2479 81.7612 29.6877 79.5153 31.1663C77.2737 32.6492 74.0665 33.3907 69.9024 33.3907H67.941V42.6846H61.6904V15.3244C63.0526 15.0571 64.4967 14.8718 66.0184 14.764C67.5401 14.6562 68.8764 14.6045 70.0231 14.6045ZM70.424 19.9326C69.9713 19.9326 69.523 19.9455 69.0833 19.9714C68.6436 19.9972 68.26 20.0274 67.941 20.0533V28.0669H69.9024C72.0664 28.0669 73.6958 27.7738 74.7907 27.1875C75.8857 26.6013 76.4331 25.5063 76.4331 23.9027C76.4331 23.1268 76.2909 22.4888 76.0107 21.9802C75.7305 21.4715 75.3296 21.0663 74.808 20.7602C74.2864 20.4542 73.6527 20.2386 72.907 20.1179C72.1569 19.9972 71.3292 19.9369 70.424 19.9369V19.9326Z" fill="white"/>
<path id="Vector_5" d="M93.0982 43.0857C91.361 43.0598 89.9514 42.8701 88.8737 42.5253C87.7917 42.1804 86.9382 41.689 86.3088 41.0639C85.6795 40.4389 85.2527 39.6759 85.0285 38.7793C84.8001 37.8826 84.688 36.8782 84.688 35.7531V12.5614L90.6583 11.6001V34.5547C90.6583 35.0893 90.6971 35.5721 90.779 35.9988C90.861 36.4256 91.0118 36.7877 91.2403 37.0808C91.4688 37.374 91.7964 37.6154 92.2231 37.8007C92.6499 37.9861 93.2232 38.1068 93.9474 38.1628L93.1068 43.09L93.0982 43.0857Z" fill="white"/>
<path id="Vector_6" d="M104.117 21.0535C105.88 21.0535 107.35 21.2518 108.522 21.6527C109.699 22.0536 110.639 22.627 111.346 23.377C112.053 24.1271 112.553 25.0323 112.846 26.1014C113.139 27.1705 113.285 28.3602 113.285 29.6664V42.0856C112.432 42.271 111.242 42.4951 109.72 42.7451C108.199 42.9995 106.354 43.1245 104.194 43.1245C102.832 43.1245 101.595 43.0038 100.487 42.7624C99.379 42.521 98.4221 42.1287 97.6246 41.5813C96.8228 41.0338 96.2107 40.3182 95.7839 39.4388C95.3571 38.5594 95.1416 37.4774 95.1416 36.1928C95.1416 34.9082 95.3873 33.9211 95.883 33.0676C96.3788 32.214 97.0383 31.5329 97.866 31.0243C98.6936 30.5156 99.642 30.1492 100.711 29.9207C101.78 29.6923 102.888 29.5802 104.035 29.5802C104.811 29.5802 105.496 29.6147 106.099 29.6793C106.699 29.7483 107.186 29.8345 107.561 29.938V29.3776C107.561 28.3645 107.255 27.5498 106.638 26.9334C106.022 26.3213 104.957 26.0109 103.435 26.0109C102.418 26.0109 101.418 26.0842 100.431 26.2307C99.4437 26.3773 98.5902 26.5842 97.866 26.8515L97.103 22.045C97.4478 21.9372 97.8832 21.8252 98.4048 21.7045C98.9264 21.5838 99.4911 21.476 100.108 21.3855C100.72 21.2906 101.371 21.213 102.052 21.1441C102.733 21.0794 103.418 21.0449 104.117 21.0449V21.0535ZM104.595 38.5206C105.181 38.5206 105.742 38.5077 106.276 38.4818C106.811 38.456 107.238 38.4172 107.557 38.3611V33.8349C107.315 33.7831 106.957 33.7271 106.475 33.6754C105.992 33.6236 105.552 33.5935 105.151 33.5935C104.591 33.5935 104.061 33.6279 103.569 33.6926C103.073 33.7616 102.642 33.8866 102.267 34.072C101.892 34.2573 101.599 34.5117 101.388 34.835C101.172 35.1539 101.069 35.5548 101.069 36.0376C101.069 36.9731 101.384 37.6197 102.009 37.9818C102.638 38.3439 103.496 38.5206 104.591 38.5206H104.595Z" fill="white"/>
<path id="Vector_7" d="M135.844 21.6138C134.637 25.6745 133.382 29.4809 132.068 33.0329C130.757 36.5849 129.322 40.0292 127.77 43.37C127.209 44.5727 126.645 45.5944 126.084 46.435C125.524 47.2756 124.907 47.9696 124.239 48.517C123.571 49.0645 122.817 49.4654 121.972 49.7197C121.131 49.9741 120.148 50.0991 119.023 50.0991C118.088 50.0991 117.226 50.0129 116.437 49.8404C115.648 49.668 115.001 49.474 114.493 49.2585L115.536 44.4908C116.152 44.7064 116.7 44.8529 117.178 44.9305C117.661 45.0124 118.165 45.0512 118.7 45.0512C119.769 45.0512 120.588 44.7624 121.166 44.1891C121.739 43.6157 122.226 42.8183 122.627 41.8052C121.265 39.1369 119.903 36.1366 118.54 32.8131C117.178 29.4895 115.894 25.7564 114.695 21.6181H121.023C121.291 22.6613 121.605 23.7864 121.967 25.002C122.33 26.2176 122.713 27.4462 123.114 28.6877C123.515 29.9292 123.925 31.1405 124.343 32.313C124.757 33.4898 125.153 34.5546 125.528 35.5159C125.877 34.5546 126.239 33.4855 126.614 32.313C126.989 31.1362 127.36 29.9292 127.722 28.6877C128.084 27.4462 128.434 26.2176 128.77 25.002C129.106 23.7864 129.408 22.657 129.675 21.6181H135.848L135.844 21.6138Z" fill="white"/>
</g>
<g id="Group_3">
<path id="Vector_8" d="M4.25043 57.4665H2.28474V59.4753H0.530273V53.3066H4.57805C6.28941 53.3066 7.21191 54.1257 7.21191 55.3887C7.21191 56.3414 6.76359 56.932 5.97904 57.2294L7.42313 59.4753H5.50055L4.25043 57.4665ZM2.28474 56.225H4.52201C5.32381 56.225 5.43158 55.6775 5.43158 55.3887C5.43158 55.0999 5.33243 54.5611 4.52201 54.5611H2.28474V56.225Z" fill="#00FFA3"/>
<path id="Vector_9" d="M16.6009 59.4753H10.7642V53.3066H16.519V54.5568H12.5186V55.6775H16.2647V56.9277H12.5186V58.2252H16.6009V59.4753Z" fill="#00FFA3"/>
<path id="Vector_10" d="M26.7702 57.5095C26.7702 58.9924 25.52 59.6002 23.244 59.6002C20.8041 59.6002 19.7695 58.8157 19.7695 57.4664H21.6275C21.6275 58.1561 22.4896 58.3587 23.3647 58.3587C24.3174 58.3587 24.8476 58.1648 24.8476 57.7509C24.8476 57.238 24.0803 57.2681 22.3991 56.975C20.8472 56.712 19.9204 56.4017 19.9204 55.1602C19.9204 53.9187 20.9162 53.1772 23.1362 53.1772C25.5761 53.1772 26.3693 54.0782 26.3693 55.186H24.5717C24.5717 54.7722 24.076 54.4187 23.119 54.4187C22.0715 54.4187 21.6663 54.6386 21.6663 55.0266C21.6663 55.5481 22.6103 55.5826 23.6578 55.712C25.2183 55.9232 26.7702 55.9577 26.7702 57.5095Z" fill="#00FFA3"/>
<path id="Vector_11" d="M36.7188 55.3974C36.7188 56.8803 35.6971 57.5571 33.9944 57.5571H31.8692V59.4797H30.1147V53.311H34.1625C35.8653 53.311 36.7188 54.1387 36.7188 55.4017V55.3974ZM34.9298 55.3974C34.9298 54.9319 34.7186 54.5611 33.9168 54.5611H31.8735V56.3156H33.9168C34.7272 56.3156 34.9298 55.8587 34.9298 55.3974Z" fill="#00FFA3"/>
<path id="Vector_12" d="M47.4964 56.3931C47.4964 58.7467 45.4359 59.6002 43.6556 59.6002C41.8752 59.6002 39.8018 58.7467 39.8018 56.3931C39.8018 54.0394 41.8752 53.1772 43.6556 53.1772C45.4359 53.1772 47.4964 54.0308 47.4964 56.3931ZM45.7161 56.3931C45.7161 55.1774 44.9574 54.4187 43.6556 54.4187C42.3537 54.4187 41.595 55.1774 41.595 56.3931C41.595 57.6087 42.3451 58.3587 43.6556 58.3587C44.966 58.3587 45.7161 57.6087 45.7161 56.3931Z" fill="#00FFA3"/>
<path id="Vector_13" d="M57.6908 53.3066V59.4753H55.8113L52.6817 55.3672V59.4753H50.9272V53.3066H52.8024L55.932 57.4148V53.3066H57.6865H57.6908Z" fill="#00FFA3"/>
<path id="Vector_14" d="M68.0363 57.5095C68.0363 58.9924 66.7862 59.6002 64.5101 59.6002C62.0702 59.6002 61.0356 58.8157 61.0356 57.4664H62.8936C62.8936 58.1561 63.7557 58.3587 64.6308 58.3587C65.5835 58.3587 66.1094 58.1648 66.1094 57.7509C66.1094 57.238 65.3421 57.2681 63.6609 56.975C62.109 56.712 61.1822 56.4017 61.1822 55.1602C61.1822 53.9187 62.178 53.1772 64.398 53.1772C66.8379 53.1772 67.6311 54.0782 67.6311 55.186H65.8335C65.8335 54.7722 65.3378 54.4187 64.3808 54.4187C63.3333 54.4187 62.9281 54.6386 62.9281 55.0266C62.9281 55.5481 63.8721 55.5826 64.9196 55.712C66.4801 55.9232 68.032 55.9577 68.032 57.5095H68.0363Z" fill="#00FFA3"/>
<path id="Vector_15" d="M76.3258 58.3503H73.1703L72.6962 59.4797H70.8555L73.7092 53.311H75.7913L78.6363 59.4797H76.7957L76.3301 58.3503H76.3258ZM75.7956 57.0959L74.7481 54.6086L73.7006 57.0959H75.7999H75.7956Z" fill="#00FFA3"/>
<path id="Vector_16" d="M88.6631 57.6605C88.6631 59.0787 87.6931 59.4753 85.7706 59.4753H81.8047V53.3066H85.9559C87.4388 53.3066 88.4346 53.6256 88.4346 54.8844C88.4346 55.6258 88.038 56.0138 87.3526 56.2078V56.2422C88.1803 56.4276 88.6674 56.8414 88.6674 57.6605H88.6631ZM83.5592 54.5568V55.8069H86.0292C86.637 55.8069 86.7362 55.4448 86.7362 55.1387C86.7362 54.8326 86.568 54.5568 86.0292 54.5568H83.5592ZM86.8827 57.5268C86.8827 57.2165 86.7577 56.9018 86.0637 56.9018H83.5592V58.2252H86.0637C86.7879 58.2252 86.8827 57.8372 86.8827 57.5268Z" fill="#00FFA3"/>
<path id="Vector_17" d="M97.854 59.4753H92.0991V53.3066H93.8536V58.2252H97.854V59.4753Z" fill="#00FFA3"/>
<path id="Vector_18" d="M107.212 59.4753H101.375V53.3066H107.13V54.5568H103.13V55.6775H106.876V56.9277H103.13V58.2252H107.212V59.4753Z" fill="#00FFA3"/>
</g>
</g>
</g>
</g>
<defs>
<clipPath id="clip0_2272_470">
<rect width="136" height="59.2" fill="white" transform="translate(0 0.399902)"/>
</clipPath>
</defs>
</svg>
