<svg width="28" height="28" viewBox="0 0 28 28" fill="none" xmlns="http://www.w3.org/2000/svg">
<g id="Frame" clip-path="url(#clip0_2272_443)">
<path id="Vector" d="M24.4562 18.1776C23.6772 17.5679 22.4264 16.7538 21.9085 16.4875C20.8064 15.9142 19.2719 15.9917 18.2593 16.6726L18.2477 16.6804C17.606 17.1276 17.0113 17.6388 16.4726 18.206L16.4585 18.2208C16.3534 18.3325 16.2119 18.403 16.0595 18.4199C15.9071 18.4367 15.7536 18.3986 15.6267 18.3126C14.4622 17.5191 13.3755 16.6168 12.3815 15.6179C11.3826 14.6242 10.4805 13.5376 9.6873 12.373C9.60123 12.2466 9.56308 12.0935 9.57971 11.9414C9.59632 11.7893 9.66664 11.648 9.778 11.543L9.79382 11.5272C10.3611 10.9887 10.8723 10.3939 11.3194 9.75217L11.3273 9.74057C12.0082 8.72806 12.0857 7.19349 11.5135 6.09397C11.2445 5.57401 10.4319 4.32314 9.8223 3.54425C9.22481 2.75323 8.23604 1.66057 7.81469 1.28352C6.88076 0.441876 5.35937 0.252031 4.27514 0.842132L4.26196 0.849514C3.59084 1.23184 2.96162 1.68343 2.38461 2.19688L2.32555 2.24962C1.20283 3.2231 0.573702 4.69598 0.506202 6.51163C0.431846 8.50974 1.02722 10.8585 2.23168 13.3039C3.46461 15.8098 5.28396 18.3004 7.49301 20.5058C9.70206 22.7112 12.1901 24.5353 14.696 25.7682C17.0058 26.9046 19.2291 27.5 21.1529 27.5C21.2657 27.5 21.3775 27.4979 21.4882 27.4937C23.3039 27.4262 24.7768 26.7975 25.7492 25.6743L25.8019 25.6153C26.3155 25.0383 26.7671 24.4091 27.1493 23.7379L27.1566 23.7247C27.7463 22.6416 27.5575 21.1213 26.7174 20.1873C26.3398 19.7638 25.2477 18.7751 24.4562 18.1776ZM25.4001 22.7607C25.0896 23.3058 24.7219 23.8161 24.3032 24.2832L24.2404 24.3528C23.6325 25.0594 22.6816 25.4412 21.4139 25.4887C19.7712 25.5488 17.6988 25.0115 15.582 23.9694C13.2717 22.8329 10.9656 21.1454 8.91157 19.0883C6.85755 17.0311 5.16688 14.7292 4.0331 12.4179C2.98842 10.3011 2.45105 8.22972 2.50906 6.58598C2.55652 5.32035 2.93833 4.36744 3.64496 3.75941L3.71668 3.69665C4.18453 3.27799 4.69559 2.91029 5.24124 2.59978C5.59087 2.41363 6.16515 2.49431 6.47734 2.77432C6.78953 3.05435 7.67969 4.03311 8.22707 4.7582L8.2392 4.77296C8.80135 5.49016 9.53278 6.62712 9.73423 7.01682C9.96784 7.46559 9.93621 8.2118 9.66725 8.6168C9.29858 9.14695 8.87603 9.63753 8.40638 10.0807L8.39898 10.0881C7.94209 10.5196 7.65395 11.0999 7.5863 11.7247C7.51865 12.3495 7.6759 12.978 8.02985 13.4973C8.89483 14.7669 9.87835 15.9516 10.9672 17.0354C12.0508 18.1243 13.2355 19.1078 14.5051 19.9726C15.0248 20.3263 15.6534 20.4832 16.2782 20.415C16.9032 20.3468 17.4832 20.0582 17.9144 19.6009L17.9229 19.5925C18.3659 19.1232 18.8561 18.7012 19.3857 18.3326C19.7907 18.0637 20.5369 18.032 20.9883 18.2672C21.3754 18.467 22.5123 19.1991 23.2295 19.7612L23.2443 19.7728C23.9715 20.3207 24.9492 21.2129 25.2282 21.5247V21.5273C25.5066 21.8369 25.5863 22.4111 25.4001 22.7607Z" fill="#5FB3E1"/>
</g>
<defs>
<clipPath id="clip0_2272_443">
<rect width="27" height="27" fill="white" transform="translate(0.5 0.5)"/>
</clipPath>
</defs>
</svg>
