<svg width="28" height="28" viewBox="0 0 28 28" fill="none" xmlns="http://www.w3.org/2000/svg">
<g id="Frame" clip-path="url(#clip0_2272_399)">
<path id="Vector" d="M16.4544 27.2031C16.668 27.4188 16.9675 27.5259 17.2697 27.4942C17.7554 27.4435 18.2236 27.3824 18.7014 27.3065C18.7061 27.3059 18.7114 27.3049 18.7161 27.3038C20.8614 26.93 22.9559 25.0648 23.5893 22.9618C23.8829 21.9762 24.897 16.9317 25.2714 14.2798C26.1426 14.1785 26.8971 13.6328 27.2726 12.798C27.7193 11.8046 27.4962 10.6771 26.7047 9.92564L26.7015 9.92301C23.5281 6.93567 20.1368 4.05855 16.6222 1.37339C15.1028 0.209045 12.897 0.209045 11.3789 1.37234C7.86316 4.05908 4.47189 6.9362 1.29525 9.92617C0.503728 10.6776 0.280667 11.805 0.727316 12.7985C1.10278 13.6338 1.85791 14.1797 2.72906 14.2803C3.10347 16.9328 4.11753 21.9773 4.41178 22.9649C5.04404 25.0648 7.1386 26.9305 9.28379 27.3044C9.28853 27.3054 9.29381 27.3059 9.29856 27.3069C9.77684 27.3829 10.2451 27.4447 10.7303 27.4947C10.7651 27.4984 10.7993 27.5 10.8341 27.5C11.0999 27.5 11.3567 27.394 11.5455 27.2031C11.7591 26.9874 11.8635 26.6868 11.8298 26.3852C11.7085 25.31 11.6789 20.8778 11.786 20.1901C11.7923 20.1701 11.7976 20.1496 11.8029 20.129C11.8741 19.8305 12.2242 19.475 12.5132 19.4075C12.8164 19.3449 13.2983 19.2631 13.9992 19.2615C14.7053 19.2625 15.1862 19.3449 15.4884 19.4075C15.7768 19.475 16.1275 19.8305 16.1987 20.129C16.2034 20.1496 16.2093 20.1701 16.2156 20.1901C16.3226 20.8778 16.2931 25.31 16.1718 26.3852C16.1375 26.6868 16.2419 26.9874 16.456 27.2031H16.4544ZM15.9171 17.4501C15.9128 17.449 15.9081 17.448 15.9039 17.4474C15.2964 17.3209 14.6742 17.2592 13.9981 17.2577C13.3274 17.2587 12.7051 17.3209 12.0961 17.447C12.0913 17.448 12.0866 17.449 12.0818 17.4501C11.0662 17.6764 10.1491 18.5681 9.87228 19.5874C9.79161 19.8205 9.70407 20.3768 9.7162 22.9249C9.71989 23.7148 9.73518 24.6096 9.76208 25.3506C9.71515 25.3433 9.66768 25.3358 9.62023 25.3284C8.21911 25.0806 6.74417 23.7629 6.33074 22.3897C6.03015 21.3813 4.79778 15.1895 4.60952 13.1603C4.5589 12.614 4.07797 12.21 3.53166 12.2538L3.44834 12.2606C3.32547 12.2706 3.20261 12.2802 3.07763 12.2907C2.74594 12.3193 2.60093 12.0809 2.55452 11.9769C2.49756 11.8504 2.43745 11.6047 2.67106 11.3832C5.79444 8.44226 9.1335 5.61049 12.5954 2.9654C13.4086 2.3421 14.5893 2.3421 15.4034 2.96646C18.8638 5.61049 22.2018 8.44173 25.3247 11.3816C25.5598 11.6057 25.5003 11.8509 25.4433 11.9775C25.3964 12.0814 25.2519 12.3197 24.9181 12.2912C24.7953 12.2807 24.6723 12.2712 24.549 12.2612L24.4662 12.2543C23.9194 12.2106 23.439 12.6144 23.3883 13.1609C23.2 15.1889 21.9677 21.3814 21.6681 22.3876C21.2537 23.7633 19.7787 25.0817 18.3776 25.329C18.3301 25.3364 18.2832 25.3437 18.2357 25.3511C18.2626 24.6102 18.2779 23.7154 18.2816 22.9254C18.2938 20.3773 18.2063 19.821 18.1256 19.5879C17.8487 18.5681 16.9316 17.6768 15.9155 17.4506L15.9171 17.4501Z" fill="#5FB3E1"/>
</g>
<defs>
<clipPath id="clip0_2272_399">
<rect width="27" height="27" fill="white" transform="translate(0.5 0.5)"/>
</clipPath>
</defs>
</svg>
