<svg xmlns="http://www.w3.org/2000/svg" width="16" height="16" viewBox="0 0 16 16" fill="none">
  <g clip-path="url(#clip0_2272_335)">
    <path d="M10 6.66675L13.0353 5.14941C13.1369 5.09864 13.2499 5.07467 13.3633 5.07978C13.4768 5.08489 13.5871 5.11891 13.6837 5.17862C13.7804 5.23832 13.8602 5.32173 13.9155 5.42093C13.9709 5.52012 13.9999 5.63182 14 5.74541V10.2547C13.9999 10.3683 13.9709 10.48 13.9155 10.5792C13.8602 10.6784 13.7804 10.7618 13.6837 10.8215C13.5871 10.8812 13.4768 10.9153 13.3633 10.9204C13.2499 10.9255 13.1369 10.9015 13.0353 10.8507L10 9.33341V6.66675Z" stroke="#FB3A2C" stroke-width="1.5" stroke-linecap="round" stroke-linejoin="round"/>
    <path d="M2 5.33333C2 4.97971 2.14048 4.64057 2.39052 4.39052C2.64057 4.14048 2.97971 4 3.33333 4H8.66667C9.02029 4 9.35943 4.14048 9.60948 4.39052C9.85952 4.64057 10 4.97971 10 5.33333V10.6667C10 11.0203 9.85952 11.3594 9.60948 11.6095C9.35943 11.8595 9.02029 12 8.66667 12H3.33333C2.97971 12 2.64057 11.8595 2.39052 11.6095C2.14048 11.3594 2 11.0203 2 10.6667V5.33333Z" stroke="#FB3A2C" stroke-width="1.5" stroke-linecap="round" stroke-linejoin="round"/>
    <path d="M5 6.26794C5.37865 6.04934 5.8185 5.96083 6.25223 6.01597C6.68596 6.07112 7.08968 6.26687 7.40158 6.57327C7.71348 6.87967 7.91638 7.27983 7.97923 7.71251C8.04208 8.14519 7.96141 8.58655 7.74957 8.96902C7.53773 9.35149 7.20639 9.65401 6.80628 9.83027C6.40616 10.0065 5.9593 10.0468 5.53411 9.94498C5.10891 9.84313 4.72881 9.60476 4.45197 9.26635C4.17513 8.92794 4.01681 8.50813 4.00125 8.07119L4 7.99994L4.00125 7.92869C4.01334 7.58992 4.11134 7.25977 4.28604 6.96927C4.46075 6.67876 4.70643 6.43743 5 6.26794Z" fill="#FB3A2C"/>
  </g>
  <defs>
    <clipPath id="clip0_2272_335">
      <rect width="16" height="16" fill="white"/>
    </clipPath>
  </defs>
</svg>